<svg width="863" height="867" viewBox="0 0 863 867" fill="none" xmlns="http://www.w3.org/2000/svg">
<rect x="180.75" y="142.75" width="580.981" height="596.5" stroke="black" stroke-opacity="0.3" stroke-width="1.5" stroke-dasharray="10 10"/>
<mask id="mask0_2_2904" style="mask-type:alpha" maskUnits="userSpaceOnUse" x="352" y="42" width="238" height="250">
<path d="M581.649 179.492C592.444 168.419 592.218 150.692 581.145 139.897L489.492 50.5456C478.419 39.7509 460.692 39.9763 449.897 51.0491L360.546 142.702C349.751 153.775 349.977 171.502 361.049 182.297L472.752 291.194L581.649 179.492Z" fill="#FFE500"/>
</mask>
<g mask="url(#mask0_2_2904)">
<path d="M581.649 179.492C592.444 168.419 592.218 150.692 581.145 139.897L489.492 50.5457C478.419 39.751 460.692 39.9764 449.897 51.0492L360.546 142.702C349.751 153.775 349.977 171.502 361.049 182.297L472.752 291.194L581.649 179.492Z" fill="#FFE500"/>
<g opacity="0.9">
<path d="M430 148C427.046 159.697 410.096 154.666 406.632 166.009C403.167 177.352 414.657 186 424.155 186" stroke="#2A3544" stroke-width="6"/>
</g>
<g opacity="0.9">
<path d="M522 191C530.395 194.486 542.102 183.406 538 174.5C533.899 165.594 522 167.806 522 155.195" stroke="#2A3544" stroke-width="4"/>
</g>
<g clip-path="url(#clip0_2_2904)">
<path fill-rule="evenodd" clip-rule="evenodd" d="M510 142C508.896 142 508 142.895 508 144V158C508 159.105 508.896 160 510 160H529C530.105 160 531 159.105 531 158V144C531 142.895 530.105 142 529 142H510ZM413 173C413 171.895 413.896 171 415 171H427C428.105 171 429 171.895 429 173V191C429 192.105 428.105 193 427 193H415C413.896 193 413 192.105 413 191V173ZM508 180C508 178.895 508.896 178 510 178H529C530.105 178 531 178.895 531 180V198C531 199.105 530.105 200 529 200H510C508.896 200 508 199.105 508 198V180Z" fill="#273951"/>
<mask id="mask1_2_2904" style="mask-type:luminance" maskUnits="userSpaceOnUse" x="413" y="142" width="119" height="58">
<path fill-rule="evenodd" clip-rule="evenodd" d="M510 142C508.896 142 508 142.895 508 144V158C508 159.105 508.896 160 510 160H529C530.105 160 531 159.105 531 158V144C531 142.895 530.105 142 529 142H510ZM413 173C413 171.895 413.896 171 415 171H427C428.105 171 429 171.895 429 173V191C429 192.105 428.105 193 427 193H415C413.896 193 413 192.105 413 191V173ZM508 180C508 178.895 508.896 178 510 178H529C530.105 178 531 178.895 531 180V198C531 199.105 530.105 200 529 200H510C508.896 200 508 199.105 508 198V180Z" fill="white"/>
</mask>
<g mask="url(#mask1_2_2904)">
<rect x="395.044" y="136" width="153.913" height="76" fill="#546E7A"/>
</g>
</g>
<path fill-rule="evenodd" clip-rule="evenodd" d="M475 85H471V116H463C461.896 116 461 116.895 461 118V132H485V118C485 116.895 484.105 116 483 116H475V85Z" fill="#E1E6E8"/>
<mask id="mask2_2_2904" style="mask-type:luminance" maskUnits="userSpaceOnUse" x="461" y="85" width="25" height="47">
<path fill-rule="evenodd" clip-rule="evenodd" d="M475 85H471V116H463C461.896 116 461 116.895 461 118V132H485V118C485 116.895 484.105 116 483 116H475V85Z" fill="white"/>
</mask>
<g mask="url(#mask2_2_2904)">
<rect x="423" y="80" width="100" height="52" fill="#90A4AE"/>
<rect x="461" y="116" width="24" height="16" fill="white" fill-opacity="0.2"/>
</g>
<circle cx="473" cy="88" r="8" fill="#5C4E00"/>
<circle cx="476" cy="85" r="3" fill="white"/>
<rect x="417" y="124" width="110" height="100" rx="18" fill="#0076DE"/>
<mask id="mask3_2_2904" style="mask-type:luminance" maskUnits="userSpaceOnUse" x="417" y="124" width="111" height="100">
<rect x="417" y="124" width="110" height="100" rx="18" fill="white"/>
</mask>
<g mask="url(#mask3_2_2904)">
<rect x="415.308" y="122.333" width="113.385" height="103.333" fill="#ABA49D"/>
</g>
<rect x="462" y="194" width="6" height="14" rx="2" fill="black" fill-opacity="0.6"/>
<rect x="448" y="194" width="6" height="14" rx="2" fill="black" fill-opacity="0.6"/>
<rect x="476" y="194" width="6" height="14" rx="2" fill="black" fill-opacity="0.6"/>
<rect x="490" y="194" width="6" height="14" rx="2" fill="black" fill-opacity="0.6"/>
<rect x="420" y="158" width="104" height="32" rx="16" fill="black" fill-opacity="0.8"/>
<rect x="444" y="168" width="10" height="12" rx="2" fill="#F4F4F4"/>
<rect x="490" y="168" width="10" height="12" rx="2" fill="#F4F4F4"/>
</g>
<path d="M351.267 399.072C337.687 412.828 315.527 412.972 301.77 399.393L224.909 323.522C211.152 309.943 211.008 287.783 224.588 274.026L301.698 195.909C315.277 182.152 337.437 182.008 351.194 195.588L452.964 296.046L351.267 399.072Z" fill="#D9D9D9"/>
<path d="M348.619 409.283C337.756 420.288 320.028 420.403 309.022 409.54L217.927 319.619C206.922 308.756 206.807 291.028 217.67 280.022L307.591 188.927C318.454 177.922 336.182 177.807 347.188 188.67L458.21 298.261L348.619 409.283Z" fill="black"/>
<g clip-path="url(#clip1_2_2904)">
<path fill-rule="evenodd" clip-rule="evenodd" d="M365.436 279.184C365 280.04 365 281.16 365 283.4V330.6C365 332.84 365 333.96 365.436 334.816C365.82 335.569 366.432 336.181 367.184 336.564C368.04 337 369.16 337 371.4 337H394.6C396.84 337 397.961 337 398.816 336.564C399.569 336.181 400.181 335.569 400.564 334.816C401 333.96 401 332.84 401 330.6V321.994C402.35 321.976 403.161 321.898 403.816 321.564C404.569 321.181 405.181 320.569 405.564 319.816C406 318.96 406 317.84 406 315.6V298.4C406 296.16 406 295.04 405.564 294.184C405.181 293.431 404.569 292.819 403.816 292.436C403.161 292.102 402.35 292.024 401 292.006V283.4C401 281.16 401 280.04 400.564 279.184C400.181 278.431 399.569 277.819 398.816 277.436C397.961 277 396.84 277 394.6 277H371.4C369.16 277 368.04 277 367.184 277.436C366.432 277.819 365.82 278.431 365.436 279.184ZM271.436 286.184C271 287.04 271 288.16 271 290.4V300H267.4C265.16 300 264.04 300 263.184 300.436C262.432 300.819 261.82 301.431 261.436 302.184C261 303.04 261 304.16 261 306.4V323.6C261 325.84 261 326.96 261.436 327.816C261.82 328.569 262.432 329.181 263.184 329.564C264.04 330 265.16 330 267.4 330H290.6C292.84 330 293.961 330 294.816 329.564C295.569 329.181 296.181 328.569 296.564 327.816C297 326.96 297 325.84 297 323.6V307.6V306.4V290.4C297 288.16 297 287.04 296.564 286.184C296.181 285.431 295.569 284.819 294.816 284.436C293.961 284 292.84 284 290.6 284H277.4C275.16 284 274.04 284 273.184 284.436C272.432 284.819 271.82 285.431 271.436 286.184Z" fill="#0076DE"/>
<mask id="mask4_2_2904" style="mask-type:luminance" maskUnits="userSpaceOnUse" x="261" y="277" width="146" height="60">
<path fill-rule="evenodd" clip-rule="evenodd" d="M365.436 279.184C365 280.04 365 281.16 365 283.4V330.6C365 332.84 365 333.96 365.436 334.816C365.82 335.569 366.432 336.181 367.184 336.564C368.04 337 369.16 337 371.4 337H394.6C396.84 337 397.961 337 398.816 336.564C399.569 336.181 400.181 335.569 400.564 334.816C401 333.96 401 332.84 401 330.6V321.994C402.35 321.976 403.161 321.898 403.816 321.564C404.569 321.181 405.181 320.569 405.564 319.816C406 318.96 406 317.84 406 315.6V298.4C406 296.16 406 295.04 405.564 294.184C405.181 293.431 404.569 292.819 403.816 292.436C403.161 292.102 402.35 292.024 401 292.006V283.4C401 281.16 401 280.04 400.564 279.184C400.181 278.431 399.569 277.819 398.816 277.436C397.961 277 396.84 277 394.6 277H371.4C369.16 277 368.04 277 367.184 277.436C366.432 277.819 365.82 278.431 365.436 279.184ZM271.436 286.184C271 287.04 271 288.16 271 290.4V300H267.4C265.16 300 264.04 300 263.184 300.436C262.432 300.819 261.82 301.431 261.436 302.184C261 303.04 261 304.16 261 306.4V323.6C261 325.84 261 326.96 261.436 327.816C261.82 328.569 262.432 329.181 263.184 329.564C264.04 330 265.16 330 267.4 330H290.6C292.84 330 293.961 330 294.816 329.564C295.569 329.181 296.181 328.569 296.564 327.816C297 326.96 297 325.84 297 323.6V307.6V306.4V290.4C297 288.16 297 287.04 296.564 286.184C296.181 285.431 295.569 284.819 294.816 284.436C293.961 284 292.84 284 290.6 284H277.4C275.16 284 274.04 284 273.184 284.436C272.432 284.819 271.82 285.431 271.436 286.184Z" fill="white"/>
</mask>
<g mask="url(#mask4_2_2904)">
<rect x="252.212" y="269" width="158.182" height="76" fill="#90A4AE"/>
<rect x="252.212" y="316" width="158.182" height="29" fill="black" fill-opacity="0.1"/>
<circle cx="392" cy="289" r="5" fill="white" fill-opacity="0.6"/>
<circle cx="392" cy="305" r="5" fill="white" fill-opacity="0.6"/>
</g>
</g>
<path fill-rule="evenodd" clip-rule="evenodd" d="M332 221L364 265H300L332 221Z" fill="#E1E6E8"/>
<mask id="mask5_2_2904" style="mask-type:luminance" maskUnits="userSpaceOnUse" x="300" y="221" width="65" height="44">
<path fill-rule="evenodd" clip-rule="evenodd" d="M332 221L364 265H300L332 221Z" fill="white"/>
</mask>
<g mask="url(#mask5_2_2904)">
<rect x="282" y="213" width="100" height="52" fill="#90A4AE"/>
<rect x="332" y="217" width="30" height="48" fill="white" fill-opacity="0.8"/>
</g>
<rect x="276" y="257" width="110" height="100" rx="18" fill="#0076DE"/>
<mask id="mask6_2_2904" style="mask-type:luminance" maskUnits="userSpaceOnUse" x="276" y="257" width="111" height="100">
<rect x="276" y="257" width="110" height="100" rx="18" fill="white"/>
</mask>
<g mask="url(#mask6_2_2904)">
<rect x="274.308" y="255.333" width="113.385" height="103.333" fill="#B0BEC5"/>
</g>
<rect x="297" y="322" width="68" height="22" rx="5" fill="black" fill-opacity="0.2"/>
<rect x="301" y="326" width="60" height="14" rx="2" fill="white"/>
<rect x="311" y="326" width="4" height="14" fill="black" fill-opacity="0.1"/>
<rect x="335" y="326" width="4" height="14" fill="black" fill-opacity="0.1"/>
<rect x="323" y="326" width="4" height="14" fill="black" fill-opacity="0.1"/>
<rect x="347" y="326" width="4" height="14" fill="black" fill-opacity="0.1"/>
<rect x="279" y="291" width="104" height="32" rx="16" fill="black" fill-opacity="0.8"/>
<rect x="303" y="301" width="10" height="12" rx="2" fill="#F4F4F4"/>
<rect x="349" y="301" width="10" height="12" rx="2" fill="#F4F4F4"/>
<path d="M594.591 410.283C605.454 421.288 623.183 421.403 634.188 410.54L725.283 320.619C736.288 309.756 736.404 292.028 725.54 281.022L635.62 189.927C624.756 178.922 607.028 178.807 596.022 189.67L485 299.261L594.591 410.283Z" fill="black"/>
<path fill-rule="evenodd" clip-rule="evenodd" d="M566.488 268.472C563 275.317 563 284.278 563 302.2V330.586H566.385V335C566.385 343.837 573.548 351 582.385 351H653.616C662.452 351 669.616 343.837 669.616 335V330.586H673V302.2C673 284.278 673 275.317 669.512 268.472C666.445 262.451 661.549 257.556 655.528 254.488C648.683 251 639.722 251 621.8 251H614.2C596.279 251 587.318 251 580.473 254.488C574.451 257.556 569.556 262.451 566.488 268.472Z" fill="#0076DE"/>
<mask id="mask7_2_2904" style="mask-type:luminance" maskUnits="userSpaceOnUse" x="563" y="251" width="111" height="100">
<path fill-rule="evenodd" clip-rule="evenodd" d="M566.488 268.472C563 275.317 563 284.278 563 302.2V330.586H566.385V335C566.385 343.837 573.548 351 582.385 351H653.616C662.452 351 669.616 343.837 669.616 335V330.586H673V302.2C673 284.278 673 275.317 669.512 268.472C666.445 262.451 661.549 257.556 655.528 254.488C648.683 251 639.722 251 621.8 251H614.2C596.279 251 587.318 251 580.473 254.488C574.451 257.556 569.556 262.451 566.488 268.472Z" fill="white"/>
</mask>
<g mask="url(#mask7_2_2904)">
<rect x="561.308" y="251" width="113.385" height="100" fill="#EEEEEE"/>
<rect x="566.385" y="317.667" width="103.231" height="33.3333" fill="black" fill-opacity="0.8"/>
</g>
<path fill-rule="evenodd" clip-rule="evenodd" d="M618 311H580V332C580 332 581.953 343 592.841 343C598.255 343 601.751 341.023 605.267 339.034C607.65 337.686 610.042 336.334 613.045 335.588C615.714 334.925 617.983 332.778 618 330.032C618.018 332.778 620.286 334.925 622.956 335.588C625.959 336.334 628.35 337.686 630.733 339.034C634.249 341.023 637.746 343 643.159 343C654.047 343 656 332 656 332V311H618H618Z" fill="#F6E3D0"/>
<path d="M610 319C610 323.418 613.582 327 618 327C622.419 327 626 323.418 626 319" stroke="#A75548" stroke-width="4" stroke-linecap="round"/>
<rect x="573" y="289" width="91" height="16" rx="4" fill="black" fill-opacity="0.8"/>
<mask id="mask8_2_2904" style="mask-type:luminance" maskUnits="userSpaceOnUse" x="573" y="289" width="92" height="16">
<rect x="573" y="289" width="91" height="16" rx="4" fill="white"/>
</mask>
<g mask="url(#mask8_2_2904)">
<path fill-rule="evenodd" clip-rule="evenodd" d="M642 280H660L648 310H630L642 280Z" fill="white" fill-opacity="0.8"/>
<path fill-rule="evenodd" clip-rule="evenodd" d="M618 280H627L615 310H606L618 280Z" fill="white" fill-opacity="0.8"/>
</g>
<path d="M540.739 377.853C578.865 415.88 578.945 477.614 540.918 515.739C502.892 553.865 441.158 553.945 403.033 515.918C364.907 477.891 364.827 416.158 402.854 378.032L471.707 309L540.739 377.853Z" fill="#28E5FF"/>
<g clip-path="url(#clip2_2_2904)">
<path fill-rule="evenodd" clip-rule="evenodd" d="M408.981 431.914C408 433.839 408 436.36 408 441.4V456.6C408 461.64 408 464.161 408.981 466.086C409.844 467.779 411.221 469.156 412.914 470.019C414.84 471 417.36 471 422.4 471H429.6C434.641 471 437.161 471 439.086 470.019C440.78 469.156 442.156 467.779 443.019 466.086C444 464.161 444 461.64 444 456.6V441.4C444 436.36 444 433.839 443.019 431.914C442.156 430.221 440.78 428.844 439.086 427.981C437.161 427 434.641 427 429.6 427H422.4C417.36 427 414.84 427 412.914 427.981C411.221 428.844 409.844 430.221 408.981 431.914ZM504.981 431.914C504 433.839 504 436.36 504 441.4V456.6C504 461.64 504 464.161 504.981 466.086C505.844 467.779 507.221 469.156 508.914 470.019C510.84 471 513.36 471 518.4 471H525.6C530.641 471 533.161 471 535.086 470.019C536.78 469.156 538.156 467.779 539.019 466.086C540 464.161 540 461.64 540 456.6V441.4C540 436.36 540 433.839 539.019 431.914C538.156 430.221 536.78 428.844 535.086 427.981C533.161 427 530.641 427 525.6 427H518.4C513.36 427 510.84 427 508.914 427.981C507.221 428.844 505.844 430.221 504.981 431.914Z" fill="#0076DE"/>
<mask id="mask9_2_2904" style="mask-type:luminance" maskUnits="userSpaceOnUse" x="408" y="427" width="133" height="44">
<path fill-rule="evenodd" clip-rule="evenodd" d="M408.981 431.914C408 433.839 408 436.36 408 441.4V456.6C408 461.64 408 464.161 408.981 466.086C409.844 467.779 411.221 469.156 412.914 470.019C414.84 471 417.36 471 422.4 471H429.6C434.641 471 437.161 471 439.086 470.019C440.78 469.156 442.156 467.779 443.019 466.086C444 464.161 444 461.64 444 456.6V441.4C444 436.36 444 433.839 443.019 431.914C442.156 430.221 440.78 428.844 439.086 427.981C437.161 427 434.641 427 429.6 427H422.4C417.36 427 414.84 427 412.914 427.981C411.221 428.844 409.844 430.221 408.981 431.914ZM504.981 431.914C504 433.839 504 436.36 504 441.4V456.6C504 461.64 504 464.161 504.981 466.086C505.844 467.779 507.221 469.156 508.914 470.019C510.84 471 513.36 471 518.4 471H525.6C530.641 471 533.161 471 535.086 470.019C536.78 469.156 538.156 467.779 539.019 466.086C540 464.161 540 461.64 540 456.6V441.4C540 436.36 540 433.839 539.019 431.914C538.156 430.221 536.78 428.844 535.086 427.981C533.161 427 530.641 427 525.6 427H518.4C513.36 427 510.84 427 508.914 427.981C507.221 428.844 505.844 430.221 504.981 431.914Z" fill="white"/>
</mask>
<g mask="url(#mask9_2_2904)">
<rect x="395.842" y="411" width="156.316" height="76" fill="#90A4AE"/>
<rect x="395.842" y="449" width="156.316" height="38" fill="black" fill-opacity="0.1"/>
</g>
</g>
<path fill-rule="evenodd" clip-rule="evenodd" d="M477 360H473V391H465C463.896 391 463 391.895 463 393V407H487V393C487 391.895 486.105 391 485 391H477V360Z" fill="#E1E6E8"/>
<mask id="mask10_2_2904" style="mask-type:luminance" maskUnits="userSpaceOnUse" x="463" y="360" width="25" height="47">
<path fill-rule="evenodd" clip-rule="evenodd" d="M477 360H473V391H465C463.896 391 463 391.895 463 393V407H487V393C487 391.895 486.105 391 485 391H477V360Z" fill="white"/>
</mask>
<g mask="url(#mask10_2_2904)">
<rect x="425" y="355" width="100" height="52" fill="#90A4AE"/>
<rect x="463" y="391" width="24" height="16" fill="white" fill-opacity="0.2"/>
</g>
<circle cx="475" cy="363" r="8" fill="#FFE65C"/>
<circle cx="478" cy="360" r="3" fill="white"/>
<rect x="419" y="399" width="110" height="100" rx="18" fill="#0076DE"/>
<mask id="mask11_2_2904" style="mask-type:luminance" maskUnits="userSpaceOnUse" x="419" y="399" width="111" height="100">
<rect x="419" y="399" width="110" height="100" rx="18" fill="white"/>
</mask>
<g mask="url(#mask11_2_2904)">
<rect x="417.308" y="397.333" width="113.385" height="103.333" fill="#B0BEC5"/>
<path fill-rule="evenodd" clip-rule="evenodd" d="M410.438 499.91C414.127 474.335 421.486 496.111 439.194 491.603C447.018 489.612 440.696 480.913 446.531 477.143C451.46 473.959 458.177 476.524 463.823 474.465C471.971 471.493 471.864 465.446 479.455 464.543C486.635 463.688 494.156 466.504 501.397 465.446C515.063 463.45 509.459 437.093 519.707 432.438C529.955 427.783 546.827 435.822 549.035 449C551.188 461.847 536.801 509.65 536.801 509.65H410.438" fill="black" fill-opacity="0.2"/>
<path fill-rule="evenodd" clip-rule="evenodd" d="M448.554 499.833C480.435 499.833 483.754 487.542 499.44 481.911C515.126 476.279 528.87 490.845 534.143 476.694C539.416 462.544 539.387 506.651 539.387 506.651H448.554V499.833Z" fill="black" fill-opacity="0.1"/>
<path fill-rule="evenodd" clip-rule="evenodd" d="M416.462 402.223C426.39 401.289 423.199 412.172 427.121 412.172C428.686 412.172 430.529 405.124 433.371 405.124C435.448 405.124 435.056 409.702 439.566 409.218C443.799 408.764 443.01 405.891 445.149 405.891C449.754 405.891 448.013 422.72 451.699 422.72C455.386 422.72 456.547 410.39 458.17 405.514C460.223 399.343 472.531 395.885 463.755 393.433H416.219" fill="black" fill-opacity="0.4"/>
</g>
<rect x="440" y="464" width="68" height="22" rx="5" fill="black" fill-opacity="0.2"/>
<rect x="444" y="468" width="60" height="14" rx="2" fill="white"/>
<rect x="454" y="468" width="4" height="14" fill="black" fill-opacity="0.1"/>
<rect x="478" y="468" width="4" height="14" fill="black" fill-opacity="0.1"/>
<rect x="466" y="468" width="4" height="14" fill="black" fill-opacity="0.1"/>
<rect x="490" y="468" width="4" height="14" fill="black" fill-opacity="0.1"/>
<path fill-rule="evenodd" clip-rule="evenodd" d="M422 431C422 426.582 425.582 423 430 423H518C522.419 423 526 426.582 526 431V449C526 453.418 522.419 457 518 457H504.981C501.711 457.167 499.5 458.137 498.005 459.347C497.518 459.741 497.024 460.163 496.522 460.593C494.047 462.708 491.365 465 488.278 465H474H460.668C457.533 465 454.732 462.871 452.046 460.829L452.046 460.829C451.096 460.106 450.16 459.395 449.229 458.792C447.773 457.85 445.771 457.141 443.019 457H430C425.582 457 422 453.418 422 449V431Z" fill="black" fill-opacity="0.8"/>
<mask id="mask12_2_2904" style="mask-type:luminance" maskUnits="userSpaceOnUse" x="422" y="423" width="105" height="42">
<path fill-rule="evenodd" clip-rule="evenodd" d="M422 431C422 426.582 425.582 423 430 423H518C522.419 423 526 426.582 526 431V449C526 453.418 522.419 457 518 457H504.981C501.711 457.167 499.5 458.137 498.005 459.347C497.518 459.741 497.024 460.163 496.522 460.593C494.047 462.708 491.365 465 488.278 465H474H460.668C457.533 465 454.732 462.871 452.046 460.829L452.046 460.829C451.096 460.106 450.16 459.395 449.229 458.792C447.773 457.85 445.771 457.141 443.019 457H430C425.582 457 422 453.418 422 449V431Z" fill="white"/>
</mask>
<g mask="url(#mask12_2_2904)">
<path fill-rule="evenodd" clip-rule="evenodd" d="M434 440C434 437.239 436.239 435 439 435H509C511.762 435 514 437.239 514 440V442C514 444.761 511.762 447 509 447H496.981C493.711 447.167 491.5 448.137 490.005 449.347C489.518 449.741 489.024 450.163 488.522 450.593C486.518 452.305 484.38 454.133 482 454.767V455H480.278H474H468.668C465.533 455 462.732 452.871 460.046 450.829L460.046 450.829C459.096 450.106 458.16 449.395 457.229 448.792C455.773 447.85 453.771 447.141 451.019 447H439C436.239 447 434 444.761 434 442V440Z" fill="#FF3D3D"/>
<path fill-rule="evenodd" clip-rule="evenodd" d="M434 465L454 419H450L430 465H434ZM472 419H461L441 465H452L472 419Z" fill="white" fill-opacity="0.2"/>
</g>
<path d="M543.739 659.853C581.865 697.88 581.945 759.614 543.918 797.739C505.892 835.865 444.158 835.945 406.033 797.918C367.907 759.891 367.827 698.158 405.854 660.032L474.707 591L543.739 659.853Z" fill="#5FFFB0"/>
<path fill-rule="evenodd" clip-rule="evenodd" d="M426 761C416.059 761 408 750.926 408 738.5C408 726.074 416.059 716 426 716C435.941 716 444 726.074 444 738.5C444 750.926 435.941 761 426 761ZM526 761C535.941 761 544 750.926 544 738.5C544 726.074 535.941 716 526 716C516.059 716 508 726.074 508 738.5C508 750.926 516.059 761 526 761Z" fill="#E1E6E8"/>
<mask id="mask13_2_2904" style="mask-type:luminance" maskUnits="userSpaceOnUse" x="408" y="716" width="137" height="45">
<path fill-rule="evenodd" clip-rule="evenodd" d="M426 761C416.059 761 408 750.926 408 738.5C408 726.074 416.059 716 426 716C435.941 716 444 726.074 444 738.5C444 750.926 435.941 761 426 761ZM526 761C535.941 761 544 750.926 544 738.5C544 726.074 535.941 716 526 716C516.059 716 508 726.074 508 738.5C508 750.926 516.059 761 526 761Z" fill="white"/>
</mask>
<g mask="url(#mask13_2_2904)">
<rect x="396" y="700" width="160" height="76" fill="black"/>
<rect x="416" y="700" width="120" height="76" fill="black" fill-opacity="0.2"/>
</g>
<path fill-rule="evenodd" clip-rule="evenodd" d="M498.211 684C505.85 677.293 511.632 664.688 511 658C510.864 656.554 513 656.299 514 658C518.418 665.512 516.717 680.067 516.154 684H519V696H493V684H498.211ZM443.521 657.741C443.521 665.273 448.492 677.445 456.262 684H461V696H435V684H438.225C437.63 680.441 435.53 665.601 440.434 658.101C441.336 656.722 443.521 656.681 443.521 657.741Z" fill="#E1E6E8"/>
<mask id="mask14_2_2904" style="mask-type:luminance" maskUnits="userSpaceOnUse" x="435" y="656" width="85" height="40">
<path fill-rule="evenodd" clip-rule="evenodd" d="M498.211 684C505.85 677.293 511.632 664.688 511 658C510.864 656.554 513 656.299 514 658C518.418 665.512 516.717 680.067 516.154 684H519V696H493V684H498.211ZM443.521 657.741C443.521 665.273 448.492 677.445 456.262 684H461V696H435V684H438.225C437.63 680.441 435.53 665.601 440.434 658.101C441.336 656.722 443.521 656.681 443.521 657.741Z" fill="white"/>
</mask>
<g mask="url(#mask14_2_2904)">
<rect x="427" y="644" width="100" height="52" fill="black"/>
<rect x="427" y="684" width="100" height="12" fill="black" fill-opacity="0.4"/>
<path fill-rule="evenodd" clip-rule="evenodd" d="M442.456 657H458.569V684H447.82C440.371 676.15 442.456 657 442.456 657Z" fill="white" fill-opacity="0.4"/>
<path fill-rule="evenodd" clip-rule="evenodd" d="M511.82 657H519.569V684H508.82C514.571 676.195 511.82 657 511.82 657Z" fill="white" fill-opacity="0.4"/>
</g>
<path fill-rule="evenodd" clip-rule="evenodd" d="M476.846 688C526.221 688 531.001 721.905 531 753C531 780.762 509.452 788 476.846 788C445.148 788 421 780.762 421 753C421 721.905 427.472 688 476.846 688Z" fill="black" fill-opacity="0.8"/>
<mask id="mask15_2_2904" style="mask-type:luminance" maskUnits="userSpaceOnUse" x="421" y="688" width="111" height="100">
<path fill-rule="evenodd" clip-rule="evenodd" d="M476.846 688C526.221 688 531.001 721.905 531 753C531 780.762 509.452 788 476.846 788C445.148 788 421 780.762 421 753C421 721.905 427.472 688 476.846 688Z" fill="white"/>
</mask>
<g mask="url(#mask15_2_2904)">
<rect x="417.616" y="686.333" width="116.769" height="103.333" fill="#4C5182"/>
</g>
<rect x="442" y="752" width="68" height="24" rx="5" fill="black" fill-opacity="0.2"/>
<rect x="446" y="756" width="60" height="16" rx="2" fill="black" fill-opacity="0.8"/>
<path d="M447 765H458L460 761L463 768L467 760L469 769L472 758L475 768L478 765H493L496 761L498 768L501 765H505" stroke="#4EFAC9" stroke-width="2" stroke-linecap="round" stroke-linejoin="round"/>
<rect x="431" y="726" width="91" height="16" rx="4" fill="black" fill-opacity="0.8"/>
<mask id="mask16_2_2904" style="mask-type:luminance" maskUnits="userSpaceOnUse" x="431" y="726" width="92" height="16">
<rect x="431" y="726" width="91" height="16" rx="4" fill="white"/>
</mask>
<g mask="url(#mask16_2_2904)">
<path fill-rule="evenodd" clip-rule="evenodd" d="M500 717H518L506 747H488L500 717Z" fill="white" fill-opacity="0.8"/>
<path fill-rule="evenodd" clip-rule="evenodd" d="M476 717H485L473 747H464L476 717Z" fill="white" fill-opacity="0.8"/>
</g>
<path d="M691.739 518.853C729.864 556.88 729.945 618.614 691.918 656.739C653.891 694.865 592.158 694.945 554.032 656.918C515.907 618.891 515.827 557.158 553.853 519.032L622.707 450L691.739 518.853Z" fill="black"/>
<path d="M392.739 518.853C430.865 556.88 430.945 618.614 392.918 656.739C354.892 694.865 293.158 694.945 255.033 656.918C216.907 618.891 216.827 557.158 254.854 519.032L323.707 450L392.739 518.853Z" fill="black"/>
<g clip-path="url(#clip3_2_2904)">
<path fill-rule="evenodd" clip-rule="evenodd" d="M559.981 574.914C559 576.839 559 579.36 559 584.4V599.6C559 604.64 559 607.161 559.981 609.086C560.844 610.779 562.221 612.156 563.914 613.019C565.84 614 568.36 614 573.4 614H580.6C585.641 614 588.161 614 590.086 613.019C591.78 612.156 593.156 610.779 594.019 609.086C595 607.161 595 604.64 595 599.6V584.4C595 579.36 595 576.839 594.019 574.914C593.156 573.221 591.78 571.844 590.086 570.981C588.161 570 585.641 570 580.6 570H573.4C568.36 570 565.84 570 563.914 570.981C562.221 571.844 560.844 573.221 559.981 574.914ZM655.981 574.914C655 576.839 655 579.36 655 584.4V599.6C655 604.64 655 607.161 655.981 609.086C656.844 610.779 658.221 612.156 659.914 613.019C661.84 614 664.36 614 669.4 614H676.6C681.641 614 684.161 614 686.086 613.019C687.78 612.156 689.156 610.779 690.019 609.086C691 607.161 691 604.64 691 599.6V584.4C691 579.36 691 576.839 690.019 574.914C689.156 573.221 687.78 571.844 686.086 570.981C684.161 570 681.641 570 676.6 570H669.4C664.36 570 661.84 570 659.914 570.981C658.221 571.844 656.844 573.221 655.981 574.914Z" fill="#0076DE"/>
<mask id="mask17_2_2904" style="mask-type:luminance" maskUnits="userSpaceOnUse" x="559" y="570" width="133" height="44">
<path fill-rule="evenodd" clip-rule="evenodd" d="M559.981 574.914C559 576.839 559 579.36 559 584.4V599.6C559 604.64 559 607.161 559.981 609.086C560.844 610.779 562.221 612.156 563.914 613.019C565.84 614 568.36 614 573.4 614H580.6C585.641 614 588.161 614 590.086 613.019C591.78 612.156 593.156 610.779 594.019 609.086C595 607.161 595 604.64 595 599.6V584.4C595 579.36 595 576.839 594.019 574.914C593.156 573.221 591.78 571.844 590.086 570.981C588.161 570 585.641 570 580.6 570H573.4C568.36 570 565.84 570 563.914 570.981C562.221 571.844 560.844 573.221 559.981 574.914ZM655.981 574.914C655 576.839 655 579.36 655 584.4V599.6C655 604.64 655 607.161 655.981 609.086C656.844 610.779 658.221 612.156 659.914 613.019C661.84 614 664.36 614 669.4 614H676.6C681.641 614 684.161 614 686.086 613.019C687.78 612.156 689.156 610.779 690.019 609.086C691 607.161 691 604.64 691 599.6V584.4C691 579.36 691 576.839 690.019 574.914C689.156 573.221 687.78 571.844 686.086 570.981C684.161 570 681.641 570 676.6 570H669.4C664.36 570 661.84 570 659.914 570.981C658.221 571.844 656.844 573.221 655.981 574.914Z" fill="white"/>
</mask>
<g mask="url(#mask17_2_2904)">
<rect x="546.842" y="554" width="156.316" height="76" fill="#90A4AE"/>
<rect x="546.842" y="592" width="156.316" height="38" fill="black" fill-opacity="0.1"/>
</g>
</g>
<path fill-rule="evenodd" clip-rule="evenodd" d="M570 567.833C570 567.85 570.012 567.68 570 567C570.155 566.603 570.34 565.752 570.846 564.5C571.546 561.953 573.199 559.036 575.923 556.167C584.126 547.5 599.761 542 625 542C650.239 542 665.874 547.5 674.077 556.167C676.801 559.036 678.454 561.953 679.154 564.5C679.66 565.752 679.845 566.603 680 567C679.988 567.68 680 567.85 680 567.833V600.333C680 600.247 679.976 600.751 680 601.167C679.779 602.931 679.553 604.512 679.154 606.167C678.15 611.159 676.282 616.093 673.231 620.333C665.009 633.948 649.755 642 625 642C600.246 642 584.991 633.948 576.769 620.333C573.718 616.092 571.85 611.159 570.846 606.167C570.448 604.512 570.221 602.931 570 601.167C570.024 600.789 570 600.064 570 600.333V567.833Z" fill="#E1E6E8"/>
<mask id="mask18_2_2904" style="mask-type:luminance" maskUnits="userSpaceOnUse" x="570" y="542" width="111" height="100">
<path fill-rule="evenodd" clip-rule="evenodd" d="M570 567.833C570 567.85 570.012 567.68 570 567C570.155 566.603 570.34 565.752 570.846 564.5C571.546 561.953 573.199 559.036 575.923 556.167C584.126 547.5 599.761 542 625 542C650.239 542 665.874 547.5 674.077 556.167C676.801 559.036 678.454 561.953 679.154 564.5C679.66 565.752 679.845 566.603 680 567C679.988 567.68 680 567.85 680 567.833V600.333C680 600.247 679.976 600.751 680 601.167C679.779 602.931 679.553 604.512 679.154 606.167C678.15 611.159 676.282 616.093 673.231 620.333C665.009 633.948 649.755 642 625 642C600.246 642 584.991 633.948 576.769 620.333C573.718 616.092 571.85 611.159 570.846 606.167C570.448 604.512 570.221 602.931 570 601.167C570.024 600.789 570 600.064 570 600.333V567.833Z" fill="white"/>
</mask>
<g mask="url(#mask18_2_2904)">
<rect x="566.616" y="540.333" width="116.769" height="103.333" fill="#B0BEC5"/>
</g>
<rect x="591" y="607" width="68" height="22" rx="5" fill="black" fill-opacity="0.2"/>
<rect x="595" y="611" width="60" height="14" rx="2" fill="white"/>
<rect x="605" y="611" width="4" height="14" fill="black" fill-opacity="0.1"/>
<rect x="629" y="611" width="4" height="14" fill="black" fill-opacity="0.1"/>
<rect x="617" y="611" width="4" height="14" fill="black" fill-opacity="0.1"/>
<rect x="641" y="611" width="4" height="14" fill="black" fill-opacity="0.1"/>
<rect x="573" y="575" width="104" height="34" rx="17" fill="black" fill-opacity="0.8"/>
<circle cx="602" cy="592" r="13" fill="#F1EEDA"/>
<circle cx="648" cy="592" r="13" fill="#F1EEDA"/>
<rect x="597" y="587" width="10" height="10" rx="2" fill="black" fill-opacity="0.8"/>
<rect x="643" y="587" width="10" height="10" rx="2" fill="black" fill-opacity="0.8"/>
<circle cx="188" cy="439" r="92" fill="#FFB38F"/>
<g clip-path="url(#clip4_2_2904)">
<path fill-rule="evenodd" clip-rule="evenodd" d="M124.981 430.914C124 432.839 124 435.36 124 440.4V455.6C124 460.64 124 463.161 124.981 465.086C125.844 466.779 127.221 468.156 128.914 469.019C130.839 470 133.36 470 138.4 470H145.6C150.641 470 153.161 470 155.086 469.019C156.78 468.156 158.156 466.779 159.019 465.086C160 463.161 160 460.64 160 455.6V440.4C160 435.36 160 432.839 159.019 430.914C158.156 429.221 156.78 427.844 155.086 426.981C153.161 426 150.641 426 145.6 426H138.4C133.36 426 130.839 426 128.914 426.981C127.221 427.844 125.844 429.221 124.981 430.914ZM220.981 430.914C220 432.839 220 435.36 220 440.4V455.6C220 460.64 220 463.161 220.981 465.086C221.844 466.779 223.221 468.156 224.914 469.019C226.839 470 229.36 470 234.4 470H241.6C246.641 470 249.161 470 251.086 469.019C252.78 468.156 254.156 466.779 255.019 465.086C256 463.161 256 460.64 256 455.6V440.4C256 435.36 256 432.839 255.019 430.914C254.156 429.221 252.78 427.844 251.086 426.981C249.161 426 246.641 426 241.6 426H234.4C229.36 426 226.839 426 224.914 426.981C223.221 427.844 221.844 429.221 220.981 430.914Z" fill="#0076DE"/>
<mask id="mask19_2_2904" style="mask-type:luminance" maskUnits="userSpaceOnUse" x="124" y="426" width="133" height="44">
<path fill-rule="evenodd" clip-rule="evenodd" d="M124.981 430.914C124 432.839 124 435.36 124 440.4V455.6C124 460.64 124 463.161 124.981 465.086C125.844 466.779 127.221 468.156 128.914 469.019C130.839 470 133.36 470 138.4 470H145.6C150.641 470 153.161 470 155.086 469.019C156.78 468.156 158.156 466.779 159.019 465.086C160 463.161 160 460.64 160 455.6V440.4C160 435.36 160 432.839 159.019 430.914C158.156 429.221 156.78 427.844 155.086 426.981C153.161 426 150.641 426 145.6 426H138.4C133.36 426 130.839 426 128.914 426.981C127.221 427.844 125.844 429.221 124.981 430.914ZM220.981 430.914C220 432.839 220 435.36 220 440.4V455.6C220 460.64 220 463.161 220.981 465.086C221.844 466.779 223.221 468.156 224.914 469.019C226.839 470 229.36 470 234.4 470H241.6C246.641 470 249.161 470 251.086 469.019C252.78 468.156 254.156 466.779 255.019 465.086C256 463.161 256 460.64 256 455.6V440.4C256 435.36 256 432.839 255.019 430.914C254.156 429.221 252.78 427.844 251.086 426.981C249.161 426 246.641 426 241.6 426H234.4C229.36 426 226.839 426 224.914 426.981C223.221 427.844 221.844 429.221 220.981 430.914Z" fill="white"/>
</mask>
<g mask="url(#mask19_2_2904)">
<rect x="111.842" y="410" width="156.316" height="76" fill="#C51162"/>
<rect x="111.842" y="448" width="156.316" height="38" fill="black" fill-opacity="0.1"/>
</g>
</g>
<path fill-rule="evenodd" clip-rule="evenodd" d="M191 367C179.954 367 171 375.954 171 387V390H162C161.448 390 161 390.448 161 391V405C161 405.552 161.448 406 162 406H220C220.552 406 221 405.552 221 405V391C221 390.448 220.552 390 220 390H211V387C211 375.954 202.046 367 191 367Z" fill="#59C4FF"/>
<mask id="mask20_2_2904" style="mask-type:luminance" maskUnits="userSpaceOnUse" x="161" y="367" width="61" height="39">
<path fill-rule="evenodd" clip-rule="evenodd" d="M191 367C179.954 367 171 375.954 171 387V390H162C161.448 390 161 390.448 161 391V405C161 405.552 161.448 406 162 406H220C220.552 406 221 405.552 221 405V391C221 390.448 220.552 390 220 390H211V387C211 375.954 202.046 367 191 367Z" fill="white"/>
</mask>
<g mask="url(#mask20_2_2904)">
<rect x="141" y="354" width="100" height="52" fill="#E57373"/>
<ellipse cx="191" cy="384" rx="4" ry="6" fill="white" fill-opacity="0.6"/>
<rect x="161" y="367" width="60" height="23" fill="white" fill-opacity="0.4"/>
<path d="M191 368.5C190.448 368.5 190 368.948 190 369.5C190 370.052 190.448 370.5 191 370.5V368.5ZM202.694 375.688C203.065 376.097 203.698 376.128 204.107 375.757C204.516 375.386 204.547 374.754 204.177 374.345L202.694 375.688ZM206.76 378.047C206.504 377.558 205.9 377.369 205.41 377.625C204.921 377.881 204.732 378.485 204.988 378.974L206.76 378.047ZM206.425 382.956C206.541 383.496 207.072 383.84 207.612 383.724C208.152 383.609 208.496 383.077 208.381 382.537L206.425 382.956ZM191 370.5C195.638 370.5 199.807 372.5 202.694 375.688L204.177 374.345C200.926 370.756 196.226 368.5 191 368.5V370.5ZM204.988 378.974C205.636 380.214 206.124 381.55 206.425 382.956L208.381 382.537C208.041 380.952 207.491 379.445 206.76 378.047L204.988 378.974Z" fill="white"/>
</g>
<rect x="135" y="398" width="110" height="100" rx="18" fill="#0076DE"/>
<mask id="mask21_2_2904" style="mask-type:luminance" maskUnits="userSpaceOnUse" x="135" y="398" width="111" height="100">
<rect x="135" y="398" width="110" height="100" rx="18" fill="white"/>
</mask>
<g mask="url(#mask21_2_2904)">
<rect x="133.308" y="396.333" width="113.385" height="103.333" fill="#F44336"/>
<path fill-rule="evenodd" clip-rule="evenodd" d="M192.631 461.333C192.557 461.345 192.551 461.352 192.539 461.425C192.612 461.413 192.618 461.407 192.631 461.333ZM202.904 486.423L203.013 486.333C204.616 486.333 201.952 486.491 202.904 486.423ZM206.923 468.092C206.997 468.08 207.003 468.073 207.015 468C206.942 468.012 206.935 468.019 206.923 468.092ZM146.846 473.833C146.858 473.907 146.865 473.913 146.938 473.925C146.926 473.852 146.92 473.845 146.846 473.833Z" fill="black" fill-opacity="0.4"/>
</g>
<rect x="156" y="463" width="68" height="22" rx="5" fill="black" fill-opacity="0.2"/>
<rect x="160" y="467" width="60" height="14" rx="2" fill="black" fill-opacity="0.6"/>
<path fill-rule="evenodd" clip-rule="evenodd" d="M172 475L178 467H166L172 475Z" fill="#E1E6E8"/>
<path fill-rule="evenodd" clip-rule="evenodd" d="M184 475L190 467H178L184 475Z" fill="#E1E6E8"/>
<path fill-rule="evenodd" clip-rule="evenodd" d="M196 475L202 467H190L196 475Z" fill="#E1E6E8"/>
<path fill-rule="evenodd" clip-rule="evenodd" d="M208 475L214 467H202L208 475Z" fill="#E1E6E8"/>
<circle cx="190" cy="444" r="24" fill="white" fill-opacity="0.4"/>
<circle cx="190" cy="444" r="20" fill="black" fill-opacity="0.8"/>
<path d="M202.573 435.815C202.874 436.278 203.494 436.408 203.957 436.106C204.419 435.805 204.549 435.185 204.248 434.722L202.573 435.815ZM199.582 429.955C199.126 429.644 198.503 429.761 198.192 430.217C197.88 430.673 197.997 431.295 198.453 431.607L199.582 429.955ZM194.357 429.642C194.885 429.802 195.444 429.504 195.604 428.975C195.764 428.447 195.465 427.888 194.937 427.728L194.357 429.642ZM183.721 428.198C183.207 428.402 182.957 428.983 183.161 429.496C183.365 430.01 183.947 430.26 184.46 430.056L183.721 428.198ZM179.76 433.039C180.164 432.662 180.185 432.029 179.808 431.625C179.431 431.222 178.798 431.201 178.395 431.578L179.76 433.039ZM174.457 437.105C174.233 437.61 174.46 438.201 174.965 438.425C175.469 438.649 176.06 438.422 176.285 437.917L174.457 437.105ZM204.248 434.722C203.021 432.843 201.433 431.221 199.582 429.955L198.453 431.607C200.088 432.724 201.49 434.156 202.573 435.815L204.248 434.722ZM194.937 427.728C193.373 427.254 191.716 427 190 427V429C191.517 429 192.979 429.225 194.357 429.642L194.937 427.728ZM190 427C187.784 427 185.665 427.425 183.721 428.198L184.46 430.056C186.172 429.375 188.041 429 190 429V427ZM178.395 431.578C176.738 433.126 175.391 435.003 174.457 437.105L176.285 437.917C177.108 436.063 178.297 434.407 179.76 433.039L178.395 431.578Z" fill="white" fill-opacity="0.9"/>
<circle cx="190" cy="444" r="10" fill="#C6080C"/>
<circle cx="190" cy="444" r="4" fill="#EE9337"/>
<circle cx="190" cy="444" r="1" fill="#F5F94F"/>
<circle cx="756" cy="439" r="92" fill="#B3FF92"/>
<g clip-path="url(#clip5_2_2904)">
<path fill-rule="evenodd" clip-rule="evenodd" d="M815 422H817V441H818.6C820.84 441 821.961 441 822.816 441.436C823.569 441.819 824.181 442.431 824.564 443.184C825 444.04 825 445.16 825 447.4V466.6C825 468.84 825 469.96 824.564 470.816C824.181 471.569 823.569 472.181 822.816 472.564C821.961 473 820.84 473 818.6 473H795.4C793.16 473 792.04 473 791.184 472.564C790.432 472.181 789.82 471.569 789.436 470.816C789 469.96 789 468.84 789 466.6V447.4C789 445.16 789 444.04 789.436 443.184C789.82 442.431 790.432 441.819 791.184 441.436C792.04 441 793.16 441 795.4 441H815V422ZM685 447.4C685 445.16 685 444.04 685.436 443.184C685.82 442.431 686.432 441.819 687.184 441.436C688.04 441 689.16 441 691.4 441H714.6C716.84 441 717.961 441 718.816 441.436C719.569 441.819 720.181 442.431 720.564 443.184C721 444.04 721 445.16 721 447.4V466.6C721 468.84 721 469.96 720.564 470.816C720.181 471.569 719.569 472.181 718.816 472.564C717.961 473 716.84 473 714.6 473H691.4C689.16 473 688.04 473 687.184 472.564C686.432 472.181 685.82 471.569 685.436 470.816C685 469.96 685 468.84 685 466.6V447.4Z" fill="#0076DE"/>
<mask id="mask22_2_2904" style="mask-type:luminance" maskUnits="userSpaceOnUse" x="685" y="422" width="141" height="51">
<path fill-rule="evenodd" clip-rule="evenodd" d="M815 422H817V441H818.6C820.84 441 821.961 441 822.816 441.436C823.569 441.819 824.181 442.431 824.564 443.184C825 444.04 825 445.16 825 447.4V466.6C825 468.84 825 469.96 824.564 470.816C824.181 471.569 823.569 472.181 822.816 472.564C821.961 473 820.84 473 818.6 473H795.4C793.16 473 792.04 473 791.184 472.564C790.432 472.181 789.82 471.569 789.436 470.816C789 469.96 789 468.84 789 466.6V447.4C789 445.16 789 444.04 789.436 443.184C789.82 442.431 790.432 441.819 791.184 441.436C792.04 441 793.16 441 795.4 441H815V422ZM685 447.4C685 445.16 685 444.04 685.436 443.184C685.82 442.431 686.432 441.819 687.184 441.436C688.04 441 689.16 441 691.4 441H714.6C716.84 441 717.961 441 718.816 441.436C719.569 441.819 720.181 442.431 720.564 443.184C721 444.04 721 445.16 721 447.4V466.6C721 468.84 721 469.96 720.564 470.816C720.181 471.569 719.569 472.181 718.816 472.564C717.961 473 716.84 473 714.6 473H691.4C689.16 473 688.04 473 687.184 472.564C686.432 472.181 685.82 471.569 685.436 470.816C685 469.96 685 468.84 685 466.6V447.4Z" fill="white"/>
</mask>
<g mask="url(#mask22_2_2904)">
<rect x="676.25" y="413" width="157.5" height="76" fill="#651FFF"/>
<rect x="676.25" y="451" width="157.5" height="38" fill="black" fill-opacity="0.1"/>
</g>
</g>
<rect x="815" y="421" width="2" height="20" fill="white" fill-opacity="0.4"/>
<circle cx="816" cy="418" r="4" fill="#E1E6E8"/>
<circle cx="817" cy="417" r="2" fill="white"/>
<path fill-rule="evenodd" clip-rule="evenodd" d="M756 370C744.955 370 736 378.954 736 390V393H727C726.448 393 726 393.448 726 394V408C726 408.552 726.448 409 727 409H785C785.553 409 786 408.552 786 408V394C786 393.448 785.553 393 785 393H776V390C776 378.954 767.046 370 756 370Z" fill="#59C4FF"/>
<mask id="mask23_2_2904" style="mask-type:luminance" maskUnits="userSpaceOnUse" x="726" y="370" width="61" height="39">
<path fill-rule="evenodd" clip-rule="evenodd" d="M756 370C744.955 370 736 378.954 736 390V393H727C726.448 393 726 393.448 726 394V408C726 408.552 726.448 409 727 409H785C785.553 409 786 408.552 786 408V394C786 393.448 785.553 393 785 393H776V390C776 378.954 767.046 370 756 370Z" fill="white"/>
</mask>
<g mask="url(#mask23_2_2904)">
<rect x="706" y="357" width="100" height="52" fill="#BA68C8"/>
<ellipse cx="756" cy="387" rx="4" ry="6" fill="white" fill-opacity="0.6"/>
<rect x="726" y="370" width="60" height="23" fill="white" fill-opacity="0.4"/>
<path d="M756 371.5C755.448 371.5 755 371.948 755 372.5C755 373.052 755.448 373.5 756 373.5V371.5ZM767.694 378.688C768.065 379.097 768.698 379.128 769.107 378.757C769.516 378.386 769.547 377.754 769.177 377.345L767.694 378.688ZM771.76 381.047C771.504 380.558 770.9 380.369 770.41 380.625C769.921 380.881 769.732 381.485 769.988 381.974L771.76 381.047ZM771.425 385.956C771.541 386.496 772.072 386.84 772.612 386.724C773.152 386.609 773.496 386.077 773.381 385.537L771.425 385.956ZM756 373.5C760.638 373.5 764.807 375.5 767.694 378.688L769.177 377.345C765.926 373.756 761.226 371.5 756 371.5V373.5ZM769.988 381.974C770.636 383.214 771.124 384.55 771.425 385.956L773.381 385.537C773.041 383.952 772.491 382.445 771.76 381.047L769.988 381.974Z" fill="white"/>
</g>
<path fill-rule="evenodd" clip-rule="evenodd" d="M755.846 401C805.221 401 810.001 434.905 810 466C810 493.762 788.452 501 755.846 501C724.148 501 700 493.762 700 466C700 434.905 706.472 401 755.846 401Z" fill="black" fill-opacity="0.8"/>
<mask id="mask24_2_2904" style="mask-type:luminance" maskUnits="userSpaceOnUse" x="700" y="401" width="111" height="100">
<path fill-rule="evenodd" clip-rule="evenodd" d="M755.846 401C805.221 401 810.001 434.905 810 466C810 493.762 788.452 501 755.846 501C724.148 501 700 493.762 700 466C700 434.905 706.472 401 755.846 401Z" fill="white"/>
</mask>
<g mask="url(#mask24_2_2904)">
<rect x="696.616" y="399.333" width="116.769" height="103.333" fill="#4FC3F7"/>
</g>
<rect x="745" y="471" width="6" height="14" rx="2" fill="black" fill-opacity="0.6"/>
<rect x="731" y="471" width="6" height="14" rx="2" fill="black" fill-opacity="0.6"/>
<rect x="759" y="471" width="6" height="14" rx="2" fill="black" fill-opacity="0.6"/>
<rect x="773" y="471" width="6" height="14" rx="2" fill="black" fill-opacity="0.6"/>
<rect x="711" y="433" width="88" height="36" rx="4" fill="black" fill-opacity="0.8"/>
<rect x="731" y="444" width="10" height="17" rx="2" fill="#5EF2B8"/>
<rect x="769" y="444" width="10" height="17" rx="2" fill="#5EF2B8"/>
<path fill-rule="evenodd" clip-rule="evenodd" d="M786 433H791L779 469H774L786 433Z" fill="white" fill-opacity="0.4"/>
<g opacity="0.9">
<path d="M282 576C279.046 587.697 262.096 582.666 258.632 594.009C255.167 605.352 266.657 614 276.155 614" stroke="#2A3544" stroke-width="6"/>
</g>
<g opacity="0.9">
<path d="M374 619C382.395 622.486 394.102 611.406 390 602.5C385.899 593.594 374 595.806 374 583.195" stroke="#2A3544" stroke-width="4"/>
</g>
<g clip-path="url(#clip6_2_2904)">
<path fill-rule="evenodd" clip-rule="evenodd" d="M362 570C360.896 570 360 570.895 360 572V586C360 587.105 360.896 588 362 588H381C382.105 588 383 587.105 383 586V572C383 570.895 382.105 570 381 570H362ZM265 601C265 599.895 265.896 599 267 599H279C280.105 599 281 599.895 281 601V619C281 620.105 280.105 621 279 621H267C265.896 621 265 620.105 265 619V601ZM360 608C360 606.895 360.896 606 362 606H381C382.105 606 383 606.895 383 608V626C383 627.105 382.105 628 381 628H362C360.896 628 360 627.105 360 626V608Z" fill="#273951"/>
<mask id="mask25_2_2904" style="mask-type:luminance" maskUnits="userSpaceOnUse" x="265" y="570" width="119" height="58">
<path fill-rule="evenodd" clip-rule="evenodd" d="M362 570C360.896 570 360 570.895 360 572V586C360 587.105 360.896 588 362 588H381C382.105 588 383 587.105 383 586V572C383 570.895 382.105 570 381 570H362ZM265 601C265 599.895 265.896 599 267 599H279C280.105 599 281 599.895 281 601V619C281 620.105 280.105 621 279 621H267C265.896 621 265 620.105 265 619V601ZM360 608C360 606.895 360.896 606 362 606H381C382.105 606 383 606.895 383 608V626C383 627.105 382.105 628 381 628H362C360.896 628 360 627.105 360 626V608Z" fill="white"/>
</mask>
<g mask="url(#mask25_2_2904)">
<rect x="247.044" y="564" width="153.913" height="76" fill="#43A047"/>
</g>
</g>
<path fill-rule="evenodd" clip-rule="evenodd" d="M318.799 536.397C310.989 528.586 310.989 515.923 318.799 508.113L332.234 521.548L338.687 515.095C337.781 513.561 337.987 511.552 339.305 510.234C340.867 508.672 343.4 508.672 344.962 510.234C346.524 511.796 346.524 514.329 344.962 515.891C343.644 517.209 341.635 517.415 340.102 516.509L333.649 522.962L347.084 536.397C341.633 541.847 333.82 543.494 326.941 541.338V560.113H322.941V539.581C321.461 538.725 320.066 537.664 318.799 536.397Z" fill="#E1E6E8"/>
<mask id="mask26_2_2904" style="mask-type:luminance" maskUnits="userSpaceOnUse" x="312" y="508" width="36" height="53">
<path fill-rule="evenodd" clip-rule="evenodd" d="M318.799 536.397C310.989 528.586 310.989 515.923 318.799 508.113L332.234 521.548L338.687 515.095C337.781 513.561 337.987 511.552 339.305 510.234C340.867 508.672 343.4 508.672 344.962 510.234C346.524 511.796 346.524 514.329 344.962 515.891C343.644 517.209 341.635 517.415 340.102 516.509L333.649 522.962L347.084 536.397C341.633 541.847 333.82 543.494 326.941 541.338V560.113H322.941V539.581C321.461 538.725 320.066 537.664 318.799 536.397Z" fill="white"/>
</mask>
<g mask="url(#mask26_2_2904)">
<rect x="275" y="508" width="100" height="52" fill="#64DD17"/>
<path fill-rule="evenodd" clip-rule="evenodd" d="M318.799 508.113C310.989 515.923 310.989 528.586 318.799 536.397C326.61 544.207 339.273 544.207 347.083 536.397" fill="white" fill-opacity="0.2"/>
<circle cx="342.134" cy="515.406" r="5.65685" transform="rotate(45 342.134 515.406)" fill="white" fill-opacity="0.8"/>
</g>
<path fill-rule="evenodd" clip-rule="evenodd" d="M324.846 552C374.221 552 379.001 585.905 379 617C379 644.762 357.452 652 324.846 652C293.148 652 269 644.762 269 617C269 585.905 275.472 552 324.846 552Z" fill="black" fill-opacity="0.8"/>
<mask id="mask27_2_2904" style="mask-type:luminance" maskUnits="userSpaceOnUse" x="269" y="552" width="111" height="100">
<path fill-rule="evenodd" clip-rule="evenodd" d="M324.846 552C374.221 552 379.001 585.905 379 617C379 644.762 357.452 652 324.846 652C293.148 652 269 644.762 269 617C269 585.905 275.472 552 324.846 552Z" fill="white"/>
</mask>
<g mask="url(#mask27_2_2904)">
<rect x="265.616" y="550.333" width="116.769" height="103.333" fill="#66BB6A"/>
</g>
<rect x="290" y="617" width="68" height="22" rx="5" fill="black" fill-opacity="0.2"/>
<rect x="294" y="621" width="60" height="14" rx="2" fill="black" fill-opacity="0.6"/>
<path fill-rule="evenodd" clip-rule="evenodd" d="M306 629L312 621H300L306 629Z" fill="#E1E6E8"/>
<path fill-rule="evenodd" clip-rule="evenodd" d="M318 629L324 621H312L318 629Z" fill="#E1E6E8"/>
<path fill-rule="evenodd" clip-rule="evenodd" d="M330 629L336 621H324L330 629Z" fill="#E1E6E8"/>
<path fill-rule="evenodd" clip-rule="evenodd" d="M342 629L348 621H336L342 629Z" fill="#E1E6E8"/>
<rect x="272" y="586" width="104" height="32" rx="16" fill="black" fill-opacity="0.8"/>
<rect x="296" y="596" width="10" height="12" rx="2" fill="#F4F4F4"/>
<rect x="342" y="596" width="10" height="12" rx="2" fill="#F4F4F4"/>
<line x1="154" y1="111" x2="220" y2="111" stroke="black" stroke-width="2"/>
<line x1="155" y1="177" x2="155" y2="111" stroke="black" stroke-width="2"/>
<line y1="-1" x2="66" y2="-1" transform="matrix(-1 0 0 1 796 112)" stroke="black" stroke-width="2"/>
<line y1="-1" x2="66" y2="-1" transform="matrix(0 -1 -1 0 794 177)" stroke="black" stroke-width="2"/>
<line y1="-1" x2="66" y2="-1" transform="matrix(1 0 0 -1 154 766)" stroke="black" stroke-width="2"/>
<line y1="-1" x2="66" y2="-1" transform="matrix(0 1 1 0 156 701)" stroke="black" stroke-width="2"/>
<line x1="796" y1="767" x2="730" y2="767" stroke="black" stroke-width="2"/>
<line x1="795" y1="701" x2="795" y2="767" stroke="black" stroke-width="2"/>
<path d="M103.922 703.79C103.722 703.747 103.548 703.599 103.486 703.389C102.523 700.201 101.672 696.936 100.955 693.685C100.885 693.372 101.083 693.06 101.399 692.991C101.715 692.922 102.025 693.119 102.094 693.435C102.805 696.658 103.648 699.892 104.602 703.051C104.694 703.36 104.52 703.683 104.213 703.778C104.115 703.807 104.016 703.81 103.922 703.79Z" fill="black"/>
<path d="M103.707 703.773C103.639 703.759 103.573 703.733 103.513 703.693C92.717 696.664 83.933 685.854 78.7756 673.251C74.4333 662.639 72.8156 651.129 74.068 640.248C68.8059 637.28 64.5492 632.105 62.4617 625.897C60.1082 618.902 60.3909 610.644 63.2574 602.641C68.8134 587.139 83.5082 575.212 99.8242 572.963C100.144 572.919 100.438 573.143 100.48 573.462C100.525 573.782 100.3 574.076 99.9813 574.118C84.0835 576.308 69.7648 587.928 64.3512 603.031C61.5734 610.788 61.2924 618.775 63.5619 625.523C65.5042 631.297 69.3993 636.129 74.2222 638.99C74.441 637.377 74.7253 635.778 75.0734 634.202C76.5189 627.648 78.7741 622.667 81.9735 618.98C86.0304 614.3 91.8372 611.811 97.1313 612.482C103.154 613.244 108.126 618.585 107.988 624.138C107.925 626.7 106.876 629.428 104.875 632.246C98.8921 640.667 87.8674 644.847 78.6543 642.185C77.461 641.842 76.295 641.385 75.1738 640.831C74.0365 651.385 75.6425 662.521 79.8517 672.809C84.9191 685.192 93.5496 695.815 104.146 702.717C104.416 702.892 104.493 703.254 104.316 703.523C104.181 703.732 103.935 703.825 103.704 703.776L103.707 703.773ZM75.3197 639.599C76.4978 640.207 77.7216 640.7 78.9793 641.063C79.3949 641.182 79.8136 641.287 80.2354 641.378C88.7133 643.201 98.4916 639.215 103.926 631.568C105.791 628.944 106.766 626.432 106.822 624.108C106.946 619.127 102.443 614.334 96.9843 613.637C92.0737 613.013 86.6595 615.353 82.8561 619.742C79.7898 623.282 77.6159 628.093 76.2149 634.453C75.8417 636.146 75.5437 637.865 75.3197 639.599Z" fill="black"/>
<path d="M94.7424 704.644C94.5315 704.598 94.3543 704.438 94.2981 704.214C94.2219 703.903 94.4123 703.586 94.7245 703.507C97.5244 702.813 100.398 702.62 103.265 702.933C103.466 702.955 103.69 702.98 103.792 702.924C104.075 702.771 104.428 702.879 104.581 703.163C104.735 703.446 104.626 703.798 104.343 703.952C103.925 704.178 103.47 704.128 103.138 704.092C100.408 703.794 97.6706 703.977 95.006 704.638C94.9176 704.661 94.8285 704.659 94.743 704.641L94.7424 704.644Z" fill="black"/>
<path d="M650.218 42.7119C649.95 42.5815 649.723 42.3658 649.586 42.0734C649.267 41.3982 649.555 40.5892 650.23 40.2698C671.376 30.254 695.618 27.4303 718.502 32.3078C741.387 37.1853 762.375 49.6667 777.597 67.4341C778.082 68.0014 778.019 68.8595 777.452 69.3444C776.884 69.8292 776.026 69.7659 775.541 69.1985C760.705 51.8754 740.246 39.7184 717.944 34.9588C695.639 30.2053 672.006 32.9557 651.397 42.7202C651.008 42.9002 650.577 42.8867 650.224 42.7148L650.218 42.7119Z" fill="black"/>
<path d="M776.279 69.9267C775.975 69.7785 775.726 69.5146 775.598 69.1737C775.155 67.9636 775.12 66.7491 775.086 65.58C775.075 65.2135 775.068 64.8409 775.043 64.4746C774.978 63.5088 774.788 62.505 774.61 61.5374L772.982 52.7387C772.843 52.001 773.329 51.2958 774.067 51.1575C774.805 51.0192 775.511 51.5054 775.649 52.2431L777.277 61.0419C777.471 62.085 777.674 63.1705 777.747 64.2907C777.776 64.6963 777.789 65.1022 777.797 65.505C777.826 66.4985 777.849 67.4435 778.139 68.2402C778.399 68.9463 778.038 69.7198 777.332 69.9789C776.972 70.1131 776.59 70.0779 776.273 69.9238L776.279 69.9267Z" fill="black"/>
<path d="M759.98 71.34C759.773 71.2393 759.589 71.0898 759.454 70.8883C759.032 70.2687 759.192 69.4278 759.805 69.003C761.171 68.0701 762.798 67.8373 764.212 67.6887C768.465 67.2486 772.777 67.2593 777.024 67.713C777.768 67.7958 778.305 68.4565 778.229 69.2026C778.152 69.9488 777.483 70.4893 776.739 70.4065C772.677 69.975 768.559 69.9682 764.491 70.3851C763.355 70.5035 762.175 70.6678 761.333 71.2374C760.915 71.5238 760.4 71.5445 759.974 71.3371L759.98 71.34Z" fill="black"/>
<path d="M280.5 80.1899C279.868 80.5302 279.076 80.3176 278.697 79.6986L264.341 55.8317C264.089 55.4058 264.085 54.8846 264.324 54.4562C264.572 54.0304 265.025 53.7713 265.52 53.7746L282.679 54.0194C281.564 41.9354 279.808 29.7888 277.449 17.8968C277.342 17.3544 277.58 16.7957 278.041 16.4939C278.496 16.1953 279.109 16.2041 279.561 16.53L308.239 36.999L311.885 20.077C312 19.5613 312.403 19.1522 312.918 19.0367C313.433 18.9211 313.973 19.1231 314.291 19.5439C321.449 29.0154 328.342 38.8676 334.772 48.8308C335.179 49.4581 335.001 50.3 334.37 50.7009C333.745 51.0985 332.906 50.9267 332.5 50.2994C326.639 41.2223 320.393 32.2296 313.914 23.547L310.454 39.5844C310.355 40.0299 310.048 40.4028 309.619 40.5642C309.193 40.7316 308.712 40.6673 308.341 40.4057L280.746 20.7073C282.893 32.1208 284.491 43.7295 285.508 55.2739C285.544 55.6547 285.41 56.0346 285.151 56.3121C284.893 56.5896 284.525 56.7492 284.136 56.7427L267.908 56.5124L281.007 78.2864C281.39 78.9266 281.185 79.7602 280.544 80.1431C280.526 80.1528 280.503 80.1656 280.485 80.1753L280.5 80.1899Z" fill="black"/>
<path d="M281.65 83.2712C280.993 83.6243 280.171 83.3824 279.815 82.7202C279.462 82.064 279.704 81.2414 280.366 80.8851C298.431 71.1279 316.408 60.649 333.798 49.724C334.432 49.3291 335.265 49.5193 335.666 50.1498C336.061 50.7835 335.874 51.6225 335.24 52.0174C317.801 62.9681 299.768 73.4851 281.656 83.268L281.65 83.2712Z" fill="black"/>
<path d="M63.0731 314.237C63.0731 314.237 62.9792 314.248 62.927 314.254C61.7695 314.305 60.7877 313.415 60.7268 312.259C59.6848 290.198 55.1115 268.601 47.131 248.079C44.7418 241.93 41.2196 234.59 35.1407 232.35C31.2509 230.922 26.3617 231.715 21.7099 234.542C17.9566 236.82 14.8475 239.996 12.7101 243.703C6.20253 255.004 8.94611 269.444 11.6036 283.419L11.8161 284.515C13.8823 295.418 15.5193 306.54 16.6697 317.572C16.7932 318.72 15.9705 319.736 14.803 319.883C13.654 320.007 12.6144 319.166 12.4909 318.017C11.3539 307.101 9.74078 296.092 7.68919 285.314L7.47662 284.218C4.81185 270.181 1.78177 254.283 9.0719 241.621C11.5609 237.302 15.1812 233.613 19.5369 230.968C25.2848 227.474 31.5121 226.546 36.6075 228.425C44.2675 231.253 48.3522 239.605 51.0695 246.573C59.216 267.519 63.8834 289.559 64.9464 312.073C65.0025 313.187 64.1816 314.129 63.0964 314.256L63.0731 314.237Z" fill="black"/>
<path d="M17.6279 320.706C16.8349 320.799 16.0312 320.438 15.5875 319.718C14.9858 318.731 15.3 317.436 16.2874 316.834C22.9036 312.805 30.5188 312.349 37.8927 311.911C42.242 311.657 46.7373 311.386 50.8595 310.366C51.3113 310.25 51.7736 310.132 52.2359 310.015C56.1157 309.002 60.5191 307.853 64.3594 310.397C65.3224 311.035 65.5906 312.336 64.9533 313.309C64.3147 314.272 63.0029 314.541 62.0399 313.903C59.7704 312.402 56.6298 313.224 53.3037 314.088C52.8218 314.218 52.3386 314.338 51.8764 314.455C47.3729 315.563 42.6886 315.845 38.1503 316.111C30.9758 316.536 24.2108 316.935 18.4838 320.426C18.2166 320.584 17.9318 320.681 17.6396 320.715L17.6279 320.706Z" fill="black"/>
<path d="M80.0695 312.961C79.026 313.083 78.0269 312.407 77.7879 311.356L65.869 260.272C64.1328 252.83 62.1638 244.389 63.3849 236.095C64.5522 228.155 69.611 219.212 78.2765 217.153C84.3699 215.712 91.2681 217.994 96.7292 223.278C101.462 227.853 104.512 233.862 107.115 239.67C116.183 259.991 121.667 281.597 123.412 303.883C123.504 305.036 122.654 306.086 121.475 306.139C120.323 306.232 119.312 305.366 119.22 304.214C117.519 282.399 112.154 261.265 103.275 241.387C100.854 235.96 98.0238 230.38 93.813 226.293C89.4495 222.076 83.8815 220.136 79.2504 221.237C72.5303 222.836 68.4707 230.373 67.5393 236.709C66.4381 244.218 68.305 252.237 69.9568 259.319L81.8757 310.403C82.1349 311.536 81.4415 312.664 80.3083 312.923C80.2248 312.933 80.153 312.952 80.0695 312.961Z" fill="black"/>
<path d="M81.6467 311.159C80.718 311.268 79.7997 310.741 79.4396 309.831C79.0172 308.749 79.5627 307.533 80.6451 307.11C93.286 302.23 107.113 299.897 120.621 300.36C121.779 300.405 122.686 301.377 122.652 302.534C122.607 303.692 121.634 304.598 120.477 304.564C107.521 304.121 94.2752 306.354 82.1506 311.037C81.9781 311.1 81.8032 311.141 81.6362 311.161L81.6467 311.159Z" fill="black"/>
<path d="M56.8658 280.366C56.6173 278.238 56.3781 276.098 56.1401 273.969C56.0451 273.155 55.6847 272.605 55.2119 272.269C54.9915 271.015 54.7723 269.772 54.5414 268.52C54.5753 268.357 54.6025 268.227 54.6093 268.195C54.8676 266.874 55.1285 265.575 54.9376 264.212C54.8096 263.297 54.5041 262.402 54.0611 261.597C56.5356 261.774 56.99 257.512 54.2921 256.781C43.3444 253.787 38.7834 267.357 37.8933 276.131C36.7381 287.526 39.1132 298.901 41.5193 309.997C41.9966 312.183 44.509 312.503 45.6246 311.368C46.6328 312.213 48.3716 312.158 49.0809 310.986C49.8197 311.153 50.6441 311.057 51.567 310.537C51.6861 310.47 51.7494 310.378 51.8569 310.302C52.436 313.269 56.4468 312.653 56.3906 309.635C56.383 309.298 56.3753 308.961 56.3689 308.633C56.5678 309.16 56.7865 309.674 57.0456 310.172C58.0387 312.065 61.2386 312.294 61.47 309.656C62.3435 299.562 58.5476 290.151 56.8682 280.386L56.8658 280.366Z" fill="black"/>
<path d="M120.996 298.318C119.815 294.999 118.696 291.661 117.606 288.31C117.354 285.336 116.946 282.381 116.381 279.444C117.163 279.078 117.704 278.275 117.492 277.094C116.982 274.267 116.327 271.467 115.529 268.706C115.3 267.918 114.754 267.506 114.121 267.337C113.703 266.202 113.295 265.065 112.856 263.932C112.235 260.875 111.367 257.878 110.286 254.959C110.569 254.397 110.796 253.8 110.864 253.115C111.09 250.794 109.764 248.317 108.999 246.206C108.551 244.99 107.279 244.515 106.152 244.826C105.745 244.514 105.245 244.308 104.597 244.373C94.3819 245.481 93.7687 258.801 94.2625 267.107C94.9422 278.638 97.8751 290.169 100.002 301.499C100.333 303.247 101.973 303.796 103.205 303.388C104.22 304.654 106.224 304.24 106.952 302.866C107.158 303 107.355 303.146 107.59 303.256C108.837 303.798 110.613 303.062 110.772 301.521C110.822 301.589 110.842 301.671 110.892 301.739C111.632 302.731 113.166 303.092 114.124 302.24C114.296 302.082 114.424 301.909 114.584 301.742C114.786 301.75 114.976 301.749 115.178 301.757C115.263 301.758 115.303 301.742 115.366 301.735C116.334 302.87 118.398 303.062 119.324 301.305C119.264 301.418 119.213 301.529 119.152 301.642C120.731 301.669 121.468 299.648 121.008 298.327L120.996 298.318Z" fill="black"/>
<path d="M855.263 283.005C855.499 283.068 855.752 283.066 856.003 282.993C856.72 282.778 857.126 282.024 856.911 281.307C855.235 275.753 853.356 270.986 851.18 265.466C850.666 264.164 850.135 262.822 849.591 261.421C849.322 260.725 848.537 260.382 847.834 260.649C847.137 260.918 846.794 261.703 847.061 262.406C847.605 263.807 848.135 265.155 848.655 266.458C850.811 271.924 852.67 276.636 854.317 282.085C854.459 282.551 854.825 282.887 855.263 283.005Z" fill="black"/>
<path d="M847.437 263.257C848.144 263.446 848.877 263.039 849.088 262.331C849.3 261.617 848.892 260.862 848.171 260.648C845.474 259.848 840.425 258.32 834.579 256.55C822.681 252.941 807.874 248.455 803.031 247.157C802.311 246.964 801.564 247.395 801.371 248.115C801.178 248.835 801.61 249.582 802.33 249.775C807.127 251.06 821.914 255.541 833.795 259.138C839.641 260.908 844.694 262.444 847.399 263.239C847.412 263.243 847.425 263.246 847.432 263.248L847.437 263.257Z" fill="black"/>
<path d="M787.82 262.037C788.212 262.142 788.646 262.069 788.997 261.805C791.223 260.095 793.509 258.084 795.931 255.956C798.355 253.822 800.867 251.62 803.515 249.538C804.101 249.078 804.205 248.222 803.744 247.636C803.284 247.05 802.428 246.947 801.842 247.407C799.132 249.535 796.591 251.764 794.139 253.926C791.753 256.022 789.496 258.005 787.342 259.658C786.749 260.116 786.635 260.962 787.093 261.555C787.28 261.801 787.538 261.962 787.82 262.037Z" fill="black"/>
<path d="M810.962 310.16C811.282 310.246 811.641 310.216 811.961 310.042C826.996 301.868 840.929 293.722 855.812 284.414C856.445 284.015 856.639 283.184 856.243 282.545C855.844 281.912 855.012 281.717 854.373 282.114C839.54 291.393 825.65 299.509 810.663 307.66C810.006 308.017 809.764 308.843 810.121 309.5C810.305 309.837 810.615 310.067 810.962 310.16Z" fill="black"/>
<path d="M810.418 310.119C810.726 310.202 811.07 310.175 811.376 310.026C812.048 309.693 812.316 308.875 811.982 308.21C804.217 292.735 796.661 276.952 789.517 261.306C789.207 260.628 788.404 260.328 787.718 260.635C787.039 260.944 786.74 261.748 787.047 262.433C794.204 278.11 801.781 293.92 809.559 309.426C809.743 309.784 810.057 310.03 810.423 310.128L810.418 310.119Z" fill="black"/>
<path d="M854.713 283.278C855.276 283.429 855.898 283.203 856.221 282.679C856.609 282.04 856.411 281.208 855.772 280.82C852.24 278.66 808.668 265.758 790.328 260.844C789.608 260.651 788.861 261.082 788.669 261.802C788.476 262.521 788.907 263.268 789.627 263.461C808.3 268.464 851.382 281.312 854.354 283.126C854.468 283.198 854.589 283.245 854.713 283.278Z" fill="black"/>
<path d="M810.531 309.28C810.714 309.329 810.915 309.341 811.114 309.303C811.851 309.171 812.348 308.469 812.215 307.733C809.936 294.745 809.09 281.488 809.685 268.324C809.717 267.575 809.143 266.944 808.394 266.912C807.645 266.879 807.014 267.453 806.981 268.202C806.375 281.567 807.237 295.024 809.55 308.204C809.644 308.741 810.04 309.149 810.531 309.28Z" fill="black"/>
<path d="M810.358 309.374C810.823 309.499 811.341 309.371 811.695 308.996C821.358 298.745 830.652 287.911 839.317 276.803C839.778 276.211 839.675 275.363 839.083 274.903C838.491 274.443 837.642 274.545 837.182 275.137C828.562 286.18 819.329 296.946 809.724 307.135C809.213 307.679 809.235 308.54 809.779 309.05C809.947 309.208 810.149 309.318 810.358 309.374Z" fill="black"/>
<path d="M836.967 275.704C837.203 275.767 837.462 275.766 837.715 275.687C838.427 275.464 838.833 274.71 838.612 273.992C836.874 268.379 834.757 262.825 832.315 257.487C832.006 256.808 831.202 256.508 830.517 256.815C829.838 257.124 829.538 257.928 829.845 258.613C832.238 263.847 834.315 269.292 836.018 274.797C836.161 275.256 836.527 275.593 836.959 275.709L836.967 275.704Z" fill="black"/>
<path d="M808.721 267.995C809.225 268.13 809.781 267.964 810.129 267.531C812.363 264.742 819.958 256.504 820.975 255.458C821.497 254.924 821.482 254.065 820.948 253.543C820.408 253.02 819.554 253.036 819.033 253.57C817.967 254.666 810.346 262.925 808.015 265.835C807.55 266.419 807.645 267.272 808.229 267.737C808.379 267.854 808.546 267.941 808.722 267.988L808.721 267.995Z" fill="black"/>
<path d="M626.088 846.882C625.383 846.882 624.678 846.828 623.967 846.72C616.54 845.541 611.431 838.483 607.217 831.966C606.81 831.336 606.993 830.496 607.623 830.097C608.253 829.69 609.094 829.873 609.493 830.503C613.383 836.532 618.065 843.048 624.387 844.051C629.117 844.803 633.772 842.371 638.935 839.37L651.43 832.095C653.721 830.761 656.573 829.101 659.69 829.182C664.122 829.291 667.307 832.576 670.376 835.753C672.517 837.961 674.733 840.251 677.247 841.28C681.963 843.204 687.702 840.928 694.81 834.31C698.741 830.652 703.633 826.093 709.399 827.157C713.092 827.841 715.782 830.618 718.371 833.307C719.435 834.405 720.532 835.543 721.657 836.478C726.976 840.894 734.491 841.558 740.346 838.124C742.236 837.013 743.93 835.543 745.719 833.992C746.918 832.948 748.165 831.871 749.473 830.91C753.681 827.827 757.916 826.818 761.412 828.078C764.705 829.264 766.874 832.149 768.968 834.933C770.56 837.053 772.064 839.052 773.982 840.298C778.549 843.265 784.322 840.989 786.592 839.871C788.801 838.787 790.949 837.358 793.023 835.97C795.028 834.635 797.102 833.253 799.29 832.129C811.704 825.768 827.221 828.742 837.026 839.37C837.534 839.919 837.501 840.779 836.945 841.287C836.389 841.795 835.535 841.761 835.027 841.206C826.049 831.472 811.86 828.728 800.517 834.54C798.464 835.59 796.458 836.931 794.513 838.225C792.365 839.655 790.143 841.138 787.771 842.303C782.093 845.094 776.523 845.189 772.491 842.567C770.174 841.063 768.453 838.774 766.786 836.559C764.848 833.978 763.011 831.533 760.477 830.618C756.947 829.345 753.057 831.614 751.058 833.084C749.839 833.978 748.639 835.021 747.474 836.031C745.672 837.595 743.801 839.221 741.694 840.454C734.857 844.464 726.096 843.705 719.902 838.557C718.662 837.528 717.517 836.335 716.399 835.184C713.993 832.691 711.724 830.341 708.884 829.819C704.46 829.006 700.123 833.043 696.633 836.288C688.671 843.698 681.99 846.151 676.197 843.78C673.154 842.533 670.735 840.041 668.404 837.629C665.585 834.716 662.922 831.966 659.595 831.885C659.548 831.885 659.501 831.885 659.453 831.885C657.149 831.885 654.825 833.24 652.765 834.432L640.27 841.707C636.442 843.936 631.366 846.889 626.061 846.889L626.088 846.882Z" fill="black"/>
<defs>
<clipPath id="clip0_2_2904">
<rect width="118" height="58" fill="white" transform="translate(413 142)"/>
</clipPath>
<clipPath id="clip1_2_2904">
<rect width="145" height="60" fill="white" transform="translate(261 277)"/>
</clipPath>
<clipPath id="clip2_2_2904">
<rect width="132" height="76" fill="white" transform="translate(408 411)"/>
</clipPath>
<clipPath id="clip3_2_2904">
<rect width="132" height="76" fill="white" transform="translate(559 554)"/>
</clipPath>
<clipPath id="clip4_2_2904">
<rect width="132" height="76" fill="white" transform="translate(124 410)"/>
</clipPath>
<clipPath id="clip5_2_2904">
<rect width="140" height="51" fill="white" transform="translate(685 422)"/>
</clipPath>
<clipPath id="clip6_2_2904">
<rect width="118" height="58" fill="white" transform="translate(265 570)"/>
</clipPath>
</defs>
</svg>
