<svg width="361" height="380" viewBox="0 0 361 380" fill="none" xmlns="http://www.w3.org/2000/svg">
<circle cx="174.103" cy="159.359" r="94.1119" fill="#FFB38F"/>
<g clip-path="url(#clip0_110_7709)">
<path fill-rule="evenodd" clip-rule="evenodd" d="M109.294 151.322C108.313 153.247 108.313 155.767 108.313 160.807V176.007C108.313 181.048 108.313 183.568 109.294 185.493C110.157 187.187 111.534 188.564 113.227 189.427C115.152 190.407 117.673 190.407 122.713 190.407H129.913C134.953 190.407 137.474 190.407 139.399 189.427C141.092 188.564 142.469 187.187 143.332 185.493C144.313 183.568 144.313 181.048 144.313 176.007V160.807C144.313 155.767 144.313 153.247 143.332 151.322C142.469 149.628 141.092 148.251 139.399 147.388C137.474 146.407 134.953 146.407 129.913 146.407H122.713C117.673 146.407 115.152 146.407 113.227 147.388C111.534 148.251 110.157 149.628 109.294 151.322ZM209.294 151.322C208.313 153.247 208.313 155.767 208.313 160.807V176.007C208.313 181.048 208.313 183.568 209.294 185.493C210.157 187.187 211.534 188.564 213.227 189.427C215.152 190.407 217.673 190.407 222.713 190.407H229.913C234.953 190.407 237.474 190.407 239.399 189.427C241.092 188.564 242.469 187.187 243.332 185.493C244.313 183.568 244.313 181.048 244.313 176.007V160.807C244.313 155.767 244.313 153.247 243.332 151.322C242.469 149.628 241.092 148.251 239.399 147.388C237.474 146.407 234.953 146.407 229.913 146.407H222.713C217.673 146.407 215.152 146.407 213.227 147.388C211.534 148.251 210.157 149.628 209.294 151.322Z" fill="#0076DE"/>
<mask id="mask0_110_7709" style="mask-type:luminance" maskUnits="userSpaceOnUse" x="108" y="146" width="137" height="45">
<path fill-rule="evenodd" clip-rule="evenodd" d="M109.294 151.322C108.313 153.247 108.313 155.767 108.313 160.807V176.007C108.313 181.048 108.313 183.568 109.294 185.493C110.157 187.187 111.534 188.564 113.227 189.427C115.152 190.407 117.673 190.407 122.713 190.407H129.913C134.953 190.407 137.474 190.407 139.399 189.427C141.092 188.564 142.469 187.187 143.332 185.493C144.313 183.568 144.313 181.048 144.313 176.007V160.807C144.313 155.767 144.313 153.247 143.332 151.322C142.469 149.628 141.092 148.251 139.399 147.388C137.474 146.407 134.953 146.407 129.913 146.407H122.713C117.673 146.407 115.152 146.407 113.227 147.388C111.534 148.251 110.157 149.628 109.294 151.322ZM209.294 151.322C208.313 153.247 208.313 155.767 208.313 160.807V176.007C208.313 181.048 208.313 183.568 209.294 185.493C210.157 187.187 211.534 188.564 213.227 189.427C215.152 190.407 217.673 190.407 222.713 190.407H229.913C234.953 190.407 237.474 190.407 239.399 189.427C241.092 188.564 242.469 187.187 243.332 185.493C244.313 183.568 244.313 181.048 244.313 176.007V160.807C244.313 155.767 244.313 153.247 243.332 151.322C242.469 149.628 241.092 148.251 239.399 147.388C237.474 146.407 234.953 146.407 229.913 146.407H222.713C217.673 146.407 215.152 146.407 213.227 147.388C211.534 148.251 210.157 149.628 209.294 151.322Z" fill="white"/>
</mask>
<g mask="url(#mask0_110_7709)">
<rect x="95.7866" y="130.407" width="161.053" height="76" fill="#C51162"/>
<rect x="95.7866" y="168.407" width="161.053" height="38" fill="black" fill-opacity="0.1"/>
</g>
</g>
<path fill-rule="evenodd" clip-rule="evenodd" d="M177.313 85.4075C166.267 85.4075 157.313 94.3618 157.313 105.407V108.407H148.313C147.761 108.407 147.313 108.855 147.313 109.407V123.407C147.313 123.96 147.761 124.407 148.313 124.407H206.313C206.865 124.407 207.313 123.96 207.313 123.407V109.407C207.313 108.855 206.865 108.407 206.313 108.407H197.313V105.407C197.313 94.3618 188.359 85.4075 177.313 85.4075Z" fill="#59C4FF"/>
<mask id="mask1_110_7709" style="mask-type:luminance" maskUnits="userSpaceOnUse" x="147" y="85" width="61" height="40">
<path fill-rule="evenodd" clip-rule="evenodd" d="M177.313 85.4075C166.267 85.4075 157.313 94.3618 157.313 105.407V108.407H148.313C147.761 108.407 147.313 108.855 147.313 109.407V123.407C147.313 123.96 147.761 124.407 148.313 124.407H206.313C206.865 124.407 207.313 123.96 207.313 123.407V109.407C207.313 108.855 206.865 108.407 206.313 108.407H197.313V105.407C197.313 94.3618 188.359 85.4075 177.313 85.4075Z" fill="white"/>
</mask>
<g mask="url(#mask1_110_7709)">
<rect x="127.313" y="72.4075" width="100" height="52" fill="#E57373"/>
<ellipse cx="177.313" cy="102.407" rx="4" ry="6" fill="white" fill-opacity="0.6"/>
<rect x="147.313" y="85.4075" width="60" height="23" fill="white" fill-opacity="0.4"/>
<path d="M177.313 86.9075C176.761 86.9075 176.313 87.3552 176.313 87.9075C176.313 88.4598 176.761 88.9075 177.313 88.9075V86.9075ZM189.007 94.095C189.378 94.5043 190.01 94.5355 190.42 94.1647C190.829 93.794 190.86 93.1616 190.489 92.7523L189.007 94.095ZM193.072 96.4547C192.817 95.9653 192.212 95.7761 191.723 96.0321C191.234 96.2881 191.044 96.8923 191.3 97.3817L193.072 96.4547ZM192.738 101.363C192.853 101.903 193.385 102.247 193.925 102.132C194.465 102.016 194.809 101.485 194.693 100.945L192.738 101.363ZM177.313 88.9075C181.95 88.9075 186.119 90.9074 189.007 94.095L190.489 92.7523C187.239 89.1638 182.539 86.9075 177.313 86.9075V88.9075ZM191.3 97.3817C191.949 98.6213 192.437 99.9576 192.738 101.363L194.693 100.945C194.354 99.3593 193.803 97.8522 193.072 96.4547L191.3 97.3817Z" fill="white"/>
</g>
<rect x="119.313" y="116.407" width="114" height="104" rx="18" fill="#0076DE"/>
<mask id="mask2_110_7709" style="mask-type:luminance" maskUnits="userSpaceOnUse" x="119" y="116" width="115" height="105">
<rect x="119.313" y="116.407" width="114" height="104" rx="18" fill="white"/>
</mask>
<g mask="url(#mask2_110_7709)">
<rect x="117.559" y="114.674" width="117.508" height="107.467" fill="#F44336"/>
<path fill-rule="evenodd" clip-rule="evenodd" d="M179.039 182.274C178.963 182.287 178.956 182.294 178.944 182.37C179.02 182.357 179.026 182.35 179.039 182.274ZM189.686 208.368L189.799 208.274C191.46 208.274 188.7 208.438 189.686 208.368ZM193.851 189.303C193.927 189.291 193.934 189.284 193.947 189.208C193.871 189.22 193.864 189.227 193.851 189.303ZM131.59 195.274C131.602 195.35 131.609 195.357 131.685 195.37C131.673 195.294 131.666 195.287 131.59 195.274Z" fill="black" fill-opacity="0.4"/>
</g>
<rect x="142.313" y="185.407" width="68" height="22" rx="5" fill="black" fill-opacity="0.2"/>
<rect x="146.313" y="189.407" width="60" height="14" rx="2" fill="black" fill-opacity="0.6"/>
<path fill-rule="evenodd" clip-rule="evenodd" d="M158.313 197.407L164.313 189.407H152.313L158.313 197.407Z" fill="#E1E6E8"/>
<path fill-rule="evenodd" clip-rule="evenodd" d="M170.313 197.407L176.313 189.407H164.313L170.313 197.407Z" fill="#E1E6E8"/>
<path fill-rule="evenodd" clip-rule="evenodd" d="M182.313 197.407L188.313 189.407H176.313L182.313 197.407Z" fill="#E1E6E8"/>
<path fill-rule="evenodd" clip-rule="evenodd" d="M194.313 197.407L200.313 189.407H188.313L194.313 197.407Z" fill="#E1E6E8"/>
<circle cx="176.313" cy="164.407" r="24" fill="white" fill-opacity="0.4"/>
<circle cx="176.313" cy="164.407" r="20" fill="black" fill-opacity="0.8"/>
<path d="M188.886 156.223C189.187 156.685 189.807 156.816 190.269 156.514C190.732 156.212 190.862 155.593 190.561 155.13L188.886 156.223ZM185.895 150.363C185.439 150.051 184.816 150.168 184.505 150.624C184.193 151.08 184.31 151.703 184.766 152.014L185.895 150.363ZM180.67 150.05C181.198 150.21 181.757 149.911 181.917 149.383C182.077 148.854 181.778 148.296 181.25 148.136L180.67 150.05ZM170.034 148.605C169.52 148.809 169.27 149.391 169.474 149.904C169.678 150.417 170.26 150.668 170.773 150.464L170.034 148.605ZM166.073 153.446C166.477 153.069 166.498 152.436 166.121 152.033C165.744 151.629 165.111 151.608 164.708 151.985L166.073 153.446ZM160.77 157.513C160.545 158.017 160.773 158.608 161.278 158.832C161.782 159.057 162.373 158.829 162.597 158.325L160.77 157.513ZM190.561 155.13C189.334 153.25 187.746 151.628 185.895 150.363L184.766 152.014C186.401 153.131 187.803 154.563 188.886 156.223L190.561 155.13ZM181.25 148.136C179.686 147.662 178.028 147.407 176.313 147.407V149.407C177.83 149.407 179.292 149.632 180.67 150.05L181.25 148.136ZM176.313 147.407C174.097 147.407 171.978 147.832 170.034 148.605L170.773 150.464C172.485 149.782 174.354 149.407 176.313 149.407V147.407ZM164.708 151.985C163.051 153.534 161.704 155.41 160.77 157.513L162.597 158.325C163.421 156.471 164.61 154.814 166.073 153.446L164.708 151.985Z" fill="white" fill-opacity="0.9"/>
<circle cx="176.313" cy="164.407" r="10" fill="#C6080C"/>
<circle cx="176.313" cy="164.407" r="4" fill="#EE9337"/>
<circle cx="176.313" cy="164.407" r="1" fill="#F5F94F"/>
<path d="M4.91471 238.683C4.75068 238.727 4.57445 238.725 4.39967 238.674C3.90057 238.525 3.6183 238 3.76785 237.501C4.93431 233.635 6.24266 230.316 7.75736 226.473C8.11521 225.567 8.48518 224.633 8.86361 223.657C9.05115 223.173 9.59755 222.933 10.087 223.12C10.5718 223.307 10.811 223.853 10.6246 224.343C10.2462 225.318 9.87745 226.256 9.51505 227.164C8.01458 230.969 6.72047 234.249 5.57337 238.043C5.47468 238.367 5.22 238.601 4.91471 238.683Z" fill="black"/>
<path d="M10.3634 224.935C9.87129 225.067 9.3608 224.784 9.2141 224.291C9.06617 223.794 9.35028 223.268 9.85239 223.119C11.7299 222.562 15.2444 221.499 19.3144 220.266C27.5978 217.754 37.9054 214.631 41.2772 213.727C41.7784 213.593 42.2983 213.893 42.4326 214.394C42.5668 214.895 42.2666 215.415 41.7654 215.549C38.4255 216.444 28.1315 219.564 19.8606 222.068C15.7906 223.3 12.2728 224.37 10.3895 224.923C10.3804 224.925 10.3713 224.928 10.3667 224.929L10.3634 224.935Z" fill="black"/>
<path d="M51.8666 224.086C51.5932 224.159 51.2914 224.108 51.0469 223.925C49.4971 222.734 47.9061 221.334 46.2198 219.853C44.5324 218.367 42.7835 216.834 40.9399 215.385C40.5318 215.065 40.46 214.469 40.7804 214.061C41.1009 213.652 41.6969 213.581 42.1051 213.901C43.9916 215.382 45.7602 216.934 47.4674 218.44C49.1281 219.899 50.6994 221.279 52.1993 222.43C52.612 222.749 52.6916 223.338 52.3724 223.75C52.2426 223.922 52.0625 224.033 51.8666 224.086Z" fill="black"/>
<path d="M35.756 257.587C35.5327 257.647 35.2829 257.626 35.06 257.505C24.5934 251.815 14.8938 246.144 4.53293 239.664C4.09233 239.387 3.95677 238.808 4.23309 238.363C4.51063 237.922 5.08963 237.787 5.53479 238.063C15.861 244.523 25.5305 250.173 35.9637 255.847C36.421 256.096 36.5896 256.671 36.341 257.128C36.2133 257.362 35.9975 257.523 35.756 257.587Z" fill="black"/>
<path d="M36.1343 257.559C35.9201 257.617 35.6806 257.598 35.4672 257.494C34.9999 257.263 34.8131 256.693 35.0456 256.23C40.4514 245.457 45.7117 234.469 50.6852 223.577C50.9004 223.105 51.4599 222.896 51.9372 223.11C52.4099 223.325 52.6184 223.884 52.4044 224.362C47.4221 235.275 42.1472 246.282 36.7326 257.077C36.6041 257.326 36.3861 257.497 36.1309 257.565L36.1343 257.559Z" fill="black"/>
<path d="M5.29776 238.873C4.9059 238.978 4.47305 238.821 4.24839 238.456C3.97777 238.011 4.11567 237.432 4.56082 237.162C7.01978 235.658 37.353 226.676 50.1203 223.255C50.6215 223.121 51.1414 223.421 51.2757 223.922C51.4099 224.423 51.1097 224.943 50.6085 225.077C37.6088 228.56 7.6171 237.505 5.54772 238.767C5.46847 238.818 5.38434 238.85 5.29776 238.873Z" fill="black"/>
<path d="M36.0558 256.975C35.9282 257.009 35.7888 257.017 35.6499 256.991C35.1369 256.899 34.7911 256.411 34.8833 255.898C36.47 246.856 37.0592 237.627 36.6448 228.462C36.6224 227.941 37.0224 227.502 37.5438 227.479C38.0652 227.457 38.5044 227.857 38.5269 228.378C38.9492 237.682 38.3486 247.051 36.739 256.225C36.6731 256.6 36.3976 256.883 36.0558 256.975Z" fill="black"/>
<path d="M36.1759 257.04C35.8524 257.127 35.4916 257.038 35.2458 256.777C28.5184 249.641 22.0484 242.098 16.0158 234.366C15.6954 233.954 15.7668 233.363 16.1791 233.043C16.5913 232.723 17.1818 232.794 17.5022 233.206C23.5032 240.893 29.9311 248.388 36.6178 255.482C36.9731 255.86 36.958 256.46 36.5795 256.815C36.4623 256.924 36.3217 257.001 36.1759 257.04Z" fill="black"/>
<path d="M17.6519 233.6C17.4879 233.644 17.3071 233.644 17.1311 233.589C16.6353 233.433 16.3531 232.908 16.5072 232.408C17.7164 228.501 19.1907 224.635 20.8906 220.918C21.1058 220.445 21.6653 220.237 22.1426 220.451C22.6153 220.666 22.8238 221.225 22.6098 221.702C20.9441 225.346 19.4984 229.136 18.313 232.969C18.2131 233.289 17.9584 233.523 17.6577 233.604L17.6519 233.6Z" fill="black"/>
<path d="M37.3161 228.234C36.9653 228.328 36.5777 228.212 36.3358 227.91C34.7804 225.969 29.4929 220.234 28.785 219.506C28.4218 219.134 28.4324 218.536 28.8039 218.173C29.18 217.808 29.7741 217.82 30.1373 218.191C30.8789 218.954 36.1849 224.704 37.807 226.73C38.1308 227.137 38.0652 227.73 37.6587 228.054C37.5537 228.136 37.4379 228.196 37.3149 228.229L37.3161 228.234Z" fill="black"/>
<path d="M57.7734 365.649C57.0386 365.649 56.4286 365.074 56.387 364.333C56.3455 363.57 56.9347 362.919 57.7041 362.877C134.652 359.059 212.722 356.669 289.76 355.768C290.529 355.726 291.153 356.371 291.16 357.14C291.167 357.902 290.557 358.533 289.788 358.54C212.785 359.441 134.749 361.831 57.8358 365.649C57.815 365.649 57.7872 365.649 57.7664 365.649H57.7734Z" fill="black"/>
<path d="M66.4447 372.939C65.7168 372.939 65.1069 372.371 65.0583 371.636C65.0167 370.874 65.599 370.216 66.3615 370.174C146.512 365.476 227.854 363.861 308.129 365.372C308.891 365.386 309.501 366.016 309.487 366.786C309.473 367.541 308.856 368.144 308.101 368.144C308.094 368.144 308.08 368.144 308.073 368.144C227.868 366.633 146.595 368.248 66.5209 372.946C66.4932 372.946 66.4654 372.946 66.4377 372.946L66.4447 372.939Z" fill="black"/>
<path d="M55.8047 379.757C55.063 379.757 54.4461 379.175 54.4184 378.427C54.3907 377.664 54.9868 377.02 55.7493 376.985C126.008 374.241 197.272 373.652 267.565 375.239C268.327 375.253 268.937 375.891 268.917 376.653C268.903 377.408 268.279 378.004 267.53 378.004C267.516 378.004 267.509 378.004 267.496 378.004C197.258 376.417 126.056 376.999 55.8533 379.75C55.8325 379.75 55.8186 379.75 55.7978 379.75L55.8047 379.757Z" fill="black"/>
<path d="M127.752 318.044V292.844H132.684V313.868H140.172V318.044H127.752ZM153.388 318.044H145.54C143.14 315.812 141.94 312.764 141.94 308.9C141.94 306.956 142.204 305.264 142.732 303.824C143.284 302.384 144.148 300.992 145.324 299.648H153.748C154.996 301.088 155.848 302.492 156.304 303.86C156.76 305.204 156.988 306.884 156.988 308.9C156.988 312.764 155.788 315.812 153.388 318.044ZM148.096 314.264H150.832C151.696 312.584 152.128 310.676 152.128 308.54C152.128 306.404 151.684 304.7 150.796 303.428H148.096C147.232 304.652 146.8 306.392 146.8 308.648C146.8 310.88 147.232 312.752 148.096 314.264ZM168.241 309.728H164.389C163.885 310.352 163.633 311.132 163.633 312.068C163.633 313.004 163.897 313.736 164.425 314.264H168.241V309.728ZM160.501 299.648H169.429C170.869 300.512 171.817 301.508 172.273 302.636C172.729 303.74 172.957 305.252 172.957 307.172V312.572C172.957 314.564 173.005 316.388 173.101 318.044H168.997L168.349 316.748C167.413 317.612 166.093 318.044 164.389 318.044H162.121C160.081 316.7 159.061 314.768 159.061 312.248C159.061 309.704 160.105 307.7 162.193 306.236H165.577C166.513 306.236 167.389 306.524 168.205 307.1V305.3C168.205 304.364 167.797 303.74 166.981 303.428H160.501V299.648ZM189.985 318.044H186.349L185.701 316.748C185.173 317.228 184.669 317.564 184.189 317.756C183.733 317.948 183.037 318.044 182.101 318.044H178.969C177.913 317.036 177.073 315.716 176.449 314.084C175.849 312.452 175.549 310.628 175.549 308.612C175.549 306.572 175.849 304.844 176.449 303.428C177.073 302.012 177.949 300.752 179.077 299.648H182.173C183.445 299.648 184.453 299.984 185.197 300.656V292.844H189.985V318.044ZM185.197 303.428H181.741C180.853 304.94 180.409 306.8 180.409 309.008C180.409 311.192 180.841 312.944 181.705 314.264H185.197V303.428ZM193.069 318.044V299.648H197.821V318.044H193.069ZM193.069 292.844H197.821V297.704H193.069V292.844ZM208.9 299.648H212.716C213.772 300.992 214.492 302.336 214.876 303.68C215.26 305.024 215.452 306.704 215.452 308.72V318.044H210.664V308.36C210.664 306.08 210.352 304.436 209.728 303.428H205.696V318.044H200.908V299.648H204.652L205.3 300.944C205.828 300.464 206.32 300.128 206.776 299.936C207.256 299.744 207.964 299.648 208.9 299.648ZM232.348 299.648V316.136C232.348 317.96 232.108 319.424 231.628 320.528C231.172 321.632 230.248 322.604 228.856 323.444H220.648V319.7H226.804C227.404 319.34 227.704 318.764 227.704 317.972V315.848C226.816 316.592 225.4 316.964 223.456 316.964H220.828C218.884 314.636 217.912 311.936 217.912 308.864C217.912 306.656 218.224 304.856 218.848 303.464C219.472 302.048 220.384 300.776 221.584 299.648H224.248C225.808 299.648 227.044 300.152 227.956 301.16L228.604 299.648H232.348ZM227.56 303.428H224.068C223.204 304.916 222.772 306.632 222.772 308.576C222.772 310.496 223.144 312.08 223.888 313.328H227.56V303.428Z" fill="black"/>
<path d="M299.338 170.503C298.964 170.503 298.589 170.351 298.312 170.053C297.799 169.485 297.834 168.612 298.402 168.092C311.683 155.973 324.666 143.202 336.99 130.127C337.517 129.572 338.391 129.544 338.952 130.071C339.507 130.598 339.534 131.471 339.007 132.032C326.635 145.156 313.596 157.982 300.267 170.15C300.003 170.393 299.664 170.51 299.331 170.51L299.338 170.503Z" fill="black"/>
<path d="M331.618 156.79C331.459 156.79 331.292 156.763 331.133 156.7C330.419 156.43 330.052 155.633 330.322 154.913L332.048 150.325C332.63 148.773 333.24 147.166 333.795 145.565C335.472 140.784 336.824 135.843 337.815 130.882C337.968 130.133 338.695 129.641 339.444 129.794C340.193 129.946 340.685 130.674 340.532 131.422C339.513 136.515 338.127 141.581 336.408 146.48C335.84 148.108 335.23 149.729 334.633 151.295L332.907 155.883C332.7 156.437 332.173 156.783 331.611 156.783L331.618 156.79Z" fill="black"/>
<path d="M332.665 157.331C331.965 157.331 331.362 156.797 331.286 156.084C331.209 155.321 331.764 154.642 332.526 154.566C341.267 153.672 350.14 153.638 358.887 154.455C359.65 154.524 360.211 155.204 360.135 155.966C360.066 156.728 359.386 157.282 358.624 157.213C350.05 156.409 341.364 156.444 332.804 157.324C332.755 157.324 332.707 157.331 332.658 157.331H332.665Z" fill="black"/>
<path d="M299.269 170.947C298.568 170.947 297.972 170.42 297.889 169.713C297.806 168.951 298.354 168.265 299.116 168.182C307.746 167.24 316.521 167.004 325.186 167.468C325.948 167.51 326.538 168.161 326.496 168.923C326.454 169.686 325.803 170.282 325.04 170.233C316.521 169.776 307.898 170.011 299.421 170.933C299.373 170.933 299.317 170.94 299.269 170.94V170.947Z" fill="black"/>
<path d="M315.662 200.41C315.488 200.41 315.315 200.375 315.149 200.313C314.435 200.029 314.088 199.225 314.372 198.511C318.254 188.783 321.644 178.735 324.451 168.646C324.659 167.912 325.421 167.475 326.156 167.683C326.891 167.891 327.327 168.653 327.12 169.388C324.284 179.574 320.867 189.718 316.944 199.537C316.729 200.077 316.209 200.41 315.655 200.41H315.662Z" fill="black"/>
<path d="M316.189 201.429C315.835 201.429 315.488 201.297 315.218 201.027C314.671 200.486 314.671 199.613 315.204 199.066C329.303 184.785 343.333 170.053 356.919 155.301C357.438 154.739 358.312 154.698 358.88 155.217C359.442 155.737 359.483 156.61 358.964 157.178C345.357 171.958 331.3 186.711 317.18 201.02C316.91 201.297 316.549 201.436 316.195 201.436L316.189 201.429Z" fill="black"/>
<path d="M66.4722 72.3663C66.0564 72.3663 65.6335 72.3316 65.2107 72.2623C61.8003 71.6803 58.9584 68.9502 56.768 64.1482C52.408 54.5997 51.6664 43.6999 54.2311 33.6456C53.0874 33.4308 51.8882 33.3615 50.6266 33.4585C40.3679 34.7196 35.8692 46.0212 36.8674 56.0132L34.1086 56.2904C32.9719 44.9957 38.2814 32.1835 50.3494 30.7006C51.9921 30.5759 53.5379 30.6798 54.9935 30.9709C56.7888 25.3443 59.6377 20.0573 63.4986 15.5117C69.3073 8.42996 75.7745 7.03719 83.2051 11.3195C83.9122 8.85959 85.1876 6.64915 86.9413 4.93069C89.7555 2.17285 93.8313 0.683057 98.1219 0.807784C102.413 0.93944 106.384 2.69947 109.025 5.62362L106.967 7.48066C104.832 5.11085 101.574 3.69036 98.0387 3.57949C94.5036 3.47555 91.1626 4.68124 88.8821 6.91246C87.2809 8.47848 86.1649 10.578 85.6589 12.9132C87.6968 14.3406 89.908 16.163 91.0032 18.8169C92.133 21.554 91.627 25.4275 88.8405 27.1806L87.9325 27.7488L87.1562 27.0143C84.2865 24.3118 82.6229 20.2998 82.5813 16.0175C82.5813 15.4147 82.6021 14.8188 82.6575 14.2298C76.0656 10.0514 70.7698 11.0354 65.6335 17.2925C62.0222 21.554 59.3466 26.4946 57.6553 31.7539C66.3822 35.1007 71.3313 45.2521 73.293 50.2134C75.1021 54.4541 76.6756 59.0344 75.8507 63.6077C75.0467 68.0216 71.1164 72.3801 66.4722 72.3801V72.3663ZM56.8928 34.4147C54.5014 43.8454 55.2084 54.0522 59.2911 62.991C61.0795 66.906 63.2282 69.1026 65.6751 69.5253C69.1617 70.1143 72.475 66.6219 73.1197 63.0949C73.8544 59.0552 72.2671 54.863 70.7283 51.2528C68.933 46.7141 64.469 37.4705 56.8858 34.4147H56.8928ZM85.3539 16.1214C85.4094 19.1287 86.4214 21.942 88.1681 24.0416C88.9514 22.8913 88.9722 21.1521 88.4385 19.8633C87.8216 18.3665 86.6293 17.147 85.347 16.1214H85.3539Z" fill="black"/>
<defs>
<clipPath id="clip0_110_7709">
<rect width="136" height="76" fill="white" transform="translate(108.313 130.407)"/>
</clipPath>
</defs>
</svg>
